<svg xmlns="http://www.w3.org/2000/svg" width="541" height="143" viewBox="0 0 541 143">
  <defs>
    <style>
      .cls-1 {
        fill: #fff;
        fill-rule: evenodd;
        opacity: 0.8;
      }
    </style>
  </defs>
  <path id="furrows_fills" data-name="furrows fills" class="cls-1" d="M-0.008,0H53.42V0.1C35.827,1.191,8.373,4.326-.008,6.245V24.211C34.667,10.422,91.6,3.432,129.6,0h38.124C116.227,4.089,44.417,13.319-.008,32.641v26.02C76.869,21.779,166.224,5.9,207.788,0h33.725C176.528,6.675,88.815,23.778-.008,67.166V97.051C121.659,27.667,263.319,6.264,322.236,0h52.723C284.724,6.881,129.056,29.881-.008,105.731v37.261C178.219,26.55,463.424.022,544.009,0"/>
</svg>
