<svg id="8d701d11-32a0-4ac7-94a3-dc526ecfc92c" data-name="Layer 1" xmlns="http://www.w3.org/2000/svg" viewBox="0 0 380 291"><defs><style>.\35 772415d-e7d2-428a-9ed5-435d2d054e5a,.d99ed0dc-71db-498f-9eb2-879a82babafd{fill:none;stroke-miterlimit:10;}.d99ed0dc-71db-498f-9eb2-879a82babafd{stroke:#d8d1ca;}.\35 772415d-e7d2-428a-9ed5-435d2d054e5a{stroke:#b2aca8;}.dcc5576b-1601-4959-af0b-51237b9deba3{fill:#52bebe;}</style></defs><title>graphic-home</title><polyline class="d99ed0dc-71db-498f-9eb2-879a82babafd" points="173.95 77.59 173.95 124.84 133.03 148.47 92.1 124.84"/><line class="d99ed0dc-71db-498f-9eb2-879a82babafd" x1="293.69" y1="146.59" x2="293.69" y2="181.3"/><polyline class="d99ed0dc-71db-498f-9eb2-879a82babafd" points="133.07 195.79 133.07 148.54 173.99 124.91"/><polygon class="d99ed0dc-71db-498f-9eb2-879a82babafd" points="51.14 148.54 92.06 124.91 132.99 148.54 132.99 195.79 92.06 219.42 51.14 195.79 51.14 148.54"/><polyline class="d99ed0dc-71db-498f-9eb2-879a82babafd" points="51.06 148.54 51.06 195.79 26.78 209.81"/><line class="d99ed0dc-71db-498f-9eb2-879a82babafd" x1="299.99" y1="146.59" x2="299.99" y2="181.3"/><line class="d99ed0dc-71db-498f-9eb2-879a82babafd" x1="214.96" y1="53.96" x2="214.96" y2="22.34"/><line class="5772415d-e7d2-428a-9ed5-435d2d054e5a" x1="249.52" y1="121.65" x2="249.52" y2="81.97"/><line class="5772415d-e7d2-428a-9ed5-435d2d054e5a" x1="180.56" y1="81.97" x2="214.91" y2="62.13"/><line class="5772415d-e7d2-428a-9ed5-435d2d054e5a" x1="92.17" y1="212.39" x2="126.53" y2="192.56"/><line class="5772415d-e7d2-428a-9ed5-435d2d054e5a" x1="126.53" y1="152.14" x2="92.17" y2="132.31"/><line class="5772415d-e7d2-428a-9ed5-435d2d054e5a" x1="180.56" y1="121.12" x2="204.77" y2="135.1"/><polyline class="d99ed0dc-71db-498f-9eb2-879a82babafd" points="287.15 59.44 255.5 77.59 255.5 124.84 296.65 148.47 327.34 130.78"/><line class="d99ed0dc-71db-498f-9eb2-879a82babafd" x1="348.23" y1="130.81" x2="378.81" y2="148.47"/><polyline class="d99ed0dc-71db-498f-9eb2-879a82babafd" points="227.29 141.25 255.5 124.84 255.5 77.59 214.5 53.96 173.5 77.59 173.5 124.84 202.05 141.22"/><line class="d99ed0dc-71db-498f-9eb2-879a82babafd" x1="103.04" y1="273.09" x2="133" y2="290.37"/><polyline class="d99ed0dc-71db-498f-9eb2-879a82babafd" points="159 211.24 132.63 195.98 91.5 219.49 91.5 254.5"/><path class="dcc5576b-1601-4959-af0b-51237b9deba3" d="M210.35,0l7.39,11.88h0V0h3.65V17.71h-3.9L210.18,5.86h0V17.71h-3.65V0h3.87Z"/><path class="dcc5576b-1601-4959-af0b-51237b9deba3" d="M228.76,0V6.8h7.17V0h3.9V17.71h-3.9V10.07h-7.17v7.64h-3.9V0h3.9Z"/><path class="dcc5576b-1601-4959-af0b-51237b9deba3" d="M242.27,18.13a3.74,3.74,0,0,1,.69-1.3,3.15,3.15,0,0,1,1.16-.87,3.94,3.94,0,0,1,1.61-.31,4,4,0,0,1,1.32.22,3.41,3.41,0,0,1,1.11.62,3,3,0,0,1,.76,1,3.06,3.06,0,0,1,.28,1.33,3.2,3.2,0,0,1-.25,1.32,3.46,3.46,0,0,1-.65,1,5.55,5.55,0,0,1-.92.77l-1,.69q-0.52.34-1,.73a4.57,4.57,0,0,0-.87.91h4.79V26h-7.44a4.22,4.22,0,0,1,.25-1.53,4.07,4.07,0,0,1,.69-1.16,6,6,0,0,1,1-.95q0.59-.43,1.24-0.88l0.71-.47a4.72,4.72,0,0,0,.69-0.53A2.82,2.82,0,0,0,247,19.8a1.61,1.61,0,0,0,.21-0.82,1.53,1.53,0,0,0-.43-1.15,1.51,1.51,0,0,0-1.09-.41,1.33,1.33,0,0,0-.76.21,1.56,1.56,0,0,0-.5.55,2.52,2.52,0,0,0-.27.75,4.29,4.29,0,0,0-.08.82h-2A4.85,4.85,0,0,1,242.27,18.13Z"/><path class="dcc5576b-1601-4959-af0b-51237b9deba3" d="M302.93,51a3.93,3.93,0,0,0-.87-1,4.06,4.06,0,0,0-2.56-.89,4.55,4.55,0,0,0-2.23.51A4.21,4.21,0,0,0,295.79,51a6,6,0,0,0-.83,1.95,9.69,9.69,0,0,0-.26,2.26,9,9,0,0,0,.26,2.17,5.86,5.86,0,0,0,.83,1.9,4.25,4.25,0,0,0,1.49,1.35,4.54,4.54,0,0,0,2.23.51A3.6,3.6,0,0,0,302.3,60a5,5,0,0,0,1.23-2.88h3.77a9,9,0,0,1-.77,3,7.19,7.19,0,0,1-1.64,2.28,7,7,0,0,1-2.38,1.44,8.73,8.73,0,0,1-3,.5,9.09,9.09,0,0,1-3.66-.71,7.85,7.85,0,0,1-2.74-1.95,8.62,8.62,0,0,1-1.71-2.92,10.7,10.7,0,0,1-.6-3.61,11.07,11.07,0,0,1,.6-3.68,8.86,8.86,0,0,1,1.71-3,7.83,7.83,0,0,1,2.74-2,9.5,9.5,0,0,1,6.43-.3,7.51,7.51,0,0,1,2.33,1.23,6.64,6.64,0,0,1,1.7,2,7.14,7.14,0,0,1,.84,2.73h-3.77A3.18,3.18,0,0,0,302.93,51Z"/><path class="dcc5576b-1601-4959-af0b-51237b9deba3" d="M313.85,46.24V64H310V46.24h3.9Z"/><path class="dcc5576b-1601-4959-af0b-51237b9deba3" d="M288.84,189.58a8.87,8.87,0,0,1,1.71-3,7.84,7.84,0,0,1,2.74-2,9.7,9.7,0,0,1,7.33,0,7.86,7.86,0,0,1,2.73,2,8.86,8.86,0,0,1,1.71,3,11.07,11.07,0,0,1,.6,3.68,10.7,10.7,0,0,1-.6,3.61,8.62,8.62,0,0,1-1.71,2.92,7.85,7.85,0,0,1-2.73,1.95,9.86,9.86,0,0,1-7.33,0,7.83,7.83,0,0,1-2.74-1.95,8.63,8.63,0,0,1-1.71-2.92,10.7,10.7,0,0,1-.6-3.61A11.07,11.07,0,0,1,288.84,189.58Zm3.56,5.86a5.86,5.86,0,0,0,.83,1.9,4.24,4.24,0,0,0,1.49,1.35,5.15,5.15,0,0,0,4.47,0,4.25,4.25,0,0,0,1.49-1.35,5.87,5.87,0,0,0,.83-1.9,9,9,0,0,0,.26-2.17,9.69,9.69,0,0,0-.26-2.26,6,6,0,0,0-.83-1.95,4.22,4.22,0,0,0-1.49-1.36,5.15,5.15,0,0,0-4.47,0,4.21,4.21,0,0,0-1.49,1.36,6,6,0,0,0-.83,1.95,9.69,9.69,0,0,0-.26,2.26A9,9,0,0,0,292.4,195.44Z"/><path class="dcc5576b-1601-4959-af0b-51237b9deba3" d="M330,119.84a8.87,8.87,0,0,1,1.71-3,7.82,7.82,0,0,1,2.74-2,9.69,9.69,0,0,1,7.33,0,7.86,7.86,0,0,1,2.73,2,8.87,8.87,0,0,1,1.71,3,11.08,11.08,0,0,1,.59,3.68,10.71,10.71,0,0,1-.59,3.61A8.63,8.63,0,0,1,344.5,130a7.87,7.87,0,0,1-2.73,1.95,9.86,9.86,0,0,1-7.33,0A7.84,7.84,0,0,1,331.7,130a8.63,8.63,0,0,1-1.71-2.92,10.71,10.71,0,0,1-.6-3.61A11.08,11.08,0,0,1,330,119.84Zm3.56,5.86a5.86,5.86,0,0,0,.83,1.9,4.26,4.26,0,0,0,1.49,1.35,5.15,5.15,0,0,0,4.47,0,4.26,4.26,0,0,0,1.49-1.35,5.88,5.88,0,0,0,.83-1.9,9,9,0,0,0,.26-2.17,9.69,9.69,0,0,0-.26-2.26,6,6,0,0,0-.83-1.95,4.22,4.22,0,0,0-1.49-1.36,5.16,5.16,0,0,0-4.47,0,4.22,4.22,0,0,0-1.49,1.36,6,6,0,0,0-.83,1.95,9.69,9.69,0,0,0-.26,2.26A9,9,0,0,0,333.55,125.69Z"/><path class="dcc5576b-1601-4959-af0b-51237b9deba3" d="M211.45,138.3l7.39,11.88h0V138.3h3.65V156h-3.9l-7.37-11.86h0V156h-3.65V138.3h3.87Z"/><path class="dcc5576b-1601-4959-af0b-51237b9deba3" d="M176.2,206v3.28h-8.56v4.09h7.42v3h-7.42v7.32h-3.9V206H176.2Z"/><path class="dcc5576b-1601-4959-af0b-51237b9deba3" d="M12.13,217.1a4,4,0,0,0-.87-1,4.07,4.07,0,0,0-2.56-.89,4.55,4.55,0,0,0-2.23.51A4.21,4.21,0,0,0,5,217.1,6,6,0,0,0,4.16,219a9.69,9.69,0,0,0-.26,2.26,9,9,0,0,0,.26,2.17,5.86,5.86,0,0,0,.83,1.9,4.24,4.24,0,0,0,1.49,1.35,4.54,4.54,0,0,0,2.23.51,3.6,3.6,0,0,0,2.79-1.09,5,5,0,0,0,1.23-2.88H16.5a9,9,0,0,1-.77,3,7.19,7.19,0,0,1-1.64,2.28A6.94,6.94,0,0,1,11.71,230a8.72,8.72,0,0,1-3,.5A9.08,9.08,0,0,1,5,229.77a7.83,7.83,0,0,1-2.74-1.95A8.63,8.63,0,0,1,.6,224.91,10.7,10.7,0,0,1,0,221.3a11.07,11.07,0,0,1,.6-3.68,8.87,8.87,0,0,1,1.71-3,7.84,7.84,0,0,1,2.74-2,9,9,0,0,1,3.66-.72,8.92,8.92,0,0,1,2.77.42,7.48,7.48,0,0,1,2.33,1.23,6.63,6.63,0,0,1,1.7,2,7.14,7.14,0,0,1,.84,2.73H12.58A3.18,3.18,0,0,0,12.13,217.1Z"/><path class="dcc5576b-1601-4959-af0b-51237b9deba3" d="M23,212.37v17.71h-3.9V212.37H23Z"/><path class="dcc5576b-1601-4959-af0b-51237b9deba3" d="M84.25,262.58a8.87,8.87,0,0,1,1.71-3,7.84,7.84,0,0,1,2.74-2,9.7,9.7,0,0,1,7.33,0,7.86,7.86,0,0,1,2.73,2,8.86,8.86,0,0,1,1.71,3,11.07,11.07,0,0,1,.6,3.68,10.7,10.7,0,0,1-.6,3.61,8.62,8.62,0,0,1-1.71,2.92A7.85,7.85,0,0,1,96,274.74a9.86,9.86,0,0,1-7.33,0A7.83,7.83,0,0,1,86,272.79a8.63,8.63,0,0,1-1.71-2.92,10.7,10.7,0,0,1-.6-3.61A11.07,11.07,0,0,1,84.25,262.58Zm3.56,5.86a5.86,5.86,0,0,0,.83,1.9,4.24,4.24,0,0,0,1.49,1.35,5.15,5.15,0,0,0,4.47,0,4.25,4.25,0,0,0,1.49-1.35,5.87,5.87,0,0,0,.83-1.9,9,9,0,0,0,.26-2.17,9.69,9.69,0,0,0-.26-2.26,6,6,0,0,0-.83-1.95,4.22,4.22,0,0,0-1.49-1.36,5.15,5.15,0,0,0-4.47,0,4.21,4.21,0,0,0-1.49,1.36,6,6,0,0,0-.83,1.95,9.69,9.69,0,0,0-.26,2.26A9,9,0,0,0,87.81,268.44Z"/></svg>