<?xml version="1.0" encoding="utf-8"?>
<!-- Generator: Adobe Illustrator 19.2.1, SVG Export Plug-In . SVG Version: 6.00 Build 0)  -->
<svg version="1.1" id="Layer_1" xmlns="http://www.w3.org/2000/svg" xmlns:xlink="http://www.w3.org/1999/xlink" x="0px" y="0px"
	 viewBox="0 0 29 28" style="enable-background:new 0 0 29 28;" xml:space="preserve">
<style type="text/css">
	.st0{fill:#A69C95;}
</style>
<path class="st0" d="M29,26.3l-8.2-8.1c1.3-1.9,2.1-4.1,2.1-6.5C23,5.3,17.9,0.1,11.5,0c-3,0-6,1.2-8.1,3.4c0,0,0,0,0,0
	c-4.5,4.5-4.5,11.8,0,16.3c2.1,2.2,5.1,3.4,8.1,3.4c2.9,0,5.6-1.2,7.6-3l8.1,8L29,26.3z M2.6,11.5c0-4.9,4-9,8.9-9
	c2.4,0,4.7,0.9,6.4,2.6c1.7,1.7,2.6,3.9,2.6,6.3c0,4.9-4,9-8.9,9C6.7,20.4,2.6,16.4,2.6,11.5z"/>
</svg>
