<svg xmlns="http://www.w3.org/2000/svg" width="11" height="12" viewBox="0 0 11 12">
  <defs>
    <style>
      .cls-1 {
        fill: #d7d2cb;
        fill-rule: evenodd;
      }
    </style>
  </defs>
  <path id="globe" class="cls-1" d="M5.5,1s0,1.1,0,1.1h0S5.489,1,5.487,1a5.5,5.5,0,0,0,0,11H5.5A5.5,5.5,0,0,0,5.5,1ZM5.676,4.733a6.464,6.464,0,0,0,1.357-.181A7.866,7.866,0,0,1,7.26,6.324H5.676V4.733Zm0-.352V2.48A2.463,2.463,0,0,1,6.938,4.214,6.13,6.13,0,0,1,5.676,4.381ZM5.324,2.476V4.381a6.1,6.1,0,0,1-1.272-.17A2.442,2.442,0,0,1,5.324,2.476Zm0,2.257V6.324H3.729A7.879,7.879,0,0,1,3.956,4.55,6.462,6.462,0,0,0,5.324,4.733ZM3.375,6.324H1.456a4.028,4.028,0,0,1,.916-2.39,6.467,6.467,0,0,0,1.243.525A8.305,8.305,0,0,0,3.375,6.324Zm0,0.352a8.307,8.307,0,0,0,.24,1.866,6.493,6.493,0,0,0-1.243.525,4.029,4.029,0,0,1-.916-2.39H3.375Zm0.354,0H5.324V8.265a6.463,6.463,0,0,0-1.368.183A7.868,7.868,0,0,1,3.729,6.676ZM5.324,8.617v1.907A2.443,2.443,0,0,1,4.052,8.787,6.1,6.1,0,0,1,5.324,8.617Zm0.352,1.9v-1.9a6.115,6.115,0,0,1,1.262.168A2.464,2.464,0,0,1,5.676,10.52Zm0-2.255V6.676H7.26a7.882,7.882,0,0,1-.226,1.77A6.468,6.468,0,0,0,5.676,8.265ZM7.614,6.676H9.544a4.027,4.027,0,0,1-.915,2.39,6.51,6.51,0,0,0-1.254-.528A8.3,8.3,0,0,0,7.614,6.676Zm0-.352a8.3,8.3,0,0,0-.24-1.864,6.467,6.467,0,0,0,1.253-.528,4.03,4.03,0,0,1,.916,2.391H7.614Zm0.771-2.66a6.166,6.166,0,0,1-1.106.457,3.952,3.952,0,0,0-.836-1.557A4.05,4.05,0,0,1,8.385,3.664Zm-3.841-1.1a3.948,3.948,0,0,0-.832,1.55,6.123,6.123,0,0,1-1.1-.454A4.045,4.045,0,0,1,4.544,2.567ZM2.614,9.335a6.1,6.1,0,0,1,1.1-.454,3.951,3.951,0,0,0,.833,1.552A4.046,4.046,0,0,1,2.614,9.335Zm3.828,1.1a3.943,3.943,0,0,0,.837-1.558,6.1,6.1,0,0,1,1.106.458A4.044,4.044,0,0,1,6.442,10.436Z"/>
</svg>
