<svg xmlns="http://www.w3.org/2000/svg" width="44" height="33" viewBox="0 0 44 33">
  <defs>
    <style>
      .cls-1 {
        fill: #52bebe;
        fill-rule: evenodd;
      }
    </style>
  </defs>
  <path id="YouTube_icon" data-name="YouTube icon" class="cls-1" d="M44,16.716v0h0c-0.017,6.4-1.05,12.712-3.24,14.388-2.48,1.9-14.345,1.814-18.718,1.814-4.558,0-15.724.051-18.283-1.588C1.36,29.8.111,23.235,0.008,16.72h0V16.711h0C0.111,10.2,1.36,3.174,3.755,1.643,6.315,0,17.48.045,22.038,0.045c4.373,0,16.238-.074,18.718,1.824,2.191,1.676,3.223,8.442,3.24,14.842h0v0ZM17.985,7.728V25.267L30,16.5Z"/>
</svg>
