<svg id="YT" xmlns="http://www.w3.org/2000/svg" width="40" height="40" viewBox="0 0 40 40">
  <defs>
    <style>
      .cls-1 {
        fill: #bb650e;
        fill-rule: evenodd;
      }
    </style>
  </defs>
  <path id="i" class="cls-1" d="M16.673,10.62a2.027,2.027,0,0,1,.623,1.486,1.938,1.938,0,0,1-.623,1.459,2.263,2.263,0,0,1-3.057,0,1.935,1.935,0,0,1-.623-1.459,2.024,2.024,0,0,1,.623-1.485A2.191,2.191,0,0,1,16.673,10.62ZM18.6,15.4h3.51v0.54a4.782,4.782,0,0,1,2.293-.432,5.424,5.424,0,0,1,2.236.54,4.581,4.581,0,0,1,1.726,1.675,4.248,4.248,0,0,1,.651,2.215v7.077H25.561V19.939a1.035,1.035,0,0,0-.2-0.567,1.129,1.129,0,0,0-.425-0.405,1.756,1.756,0,0,0-1.019-.216,3.313,3.313,0,0,0-.906.216,3,3,0,0,0-.906.594v7.455H18.6V15.4ZM16.9,27.015H13.39V15.4H16.9V27.015Z" transform="translate(-1 1.5)"/>
</svg>
