<?xml version="1.0" encoding="utf-8"?>
<!-- Generator: Adobe Illustrator 19.2.1, SVG Export Plug-In . SVG Version: 6.00 Build 0)  -->
<svg version="1.1" id="Layer_1" xmlns="http://www.w3.org/2000/svg" xmlns:xlink="http://www.w3.org/1999/xlink" x="0px" y="0px"
	 viewBox="0 0 18 17" style="enable-background:new 0 0 18 17;" xml:space="preserve">
<style type="text/css">
	.st0{fill:#8D827A;}
</style>
<path class="st0" d="M18,15.9l-5.2-5C13.6,9.8,14,8.4,14,7c0-3.9-3.1-7-7-7C3.1,0,0,3.1,0,7s3.1,7,7,7c1.8,0,3.5-0.7,4.8-1.9
	l5.1,4.9L18,15.9z M1.5,7C1.5,4,4,1.5,7,1.5c1.5,0,2.9,0.6,3.9,1.6c1,1,1.6,2.4,1.6,3.9c0,3-2.5,5.5-5.5,5.5C4,12.5,1.5,10,1.5,7z"
	/>
</svg>
