<?xml version="1.0" encoding="utf-8"?>
<!-- Generator: Adobe Illustrator 19.2.1, SVG Export Plug-In . SVG Version: 6.00 Build 0)  -->
<svg version="1.1" id="YT" xmlns="http://www.w3.org/2000/svg" xmlns:xlink="http://www.w3.org/1999/xlink" x="0px" y="0px"
	 viewBox="0 0 40 40" style="enable-background:new 0 0 40 40;" xml:space="preserve">
<style type="text/css">
	.st0{fill:#BB650E;}
</style>
<path id="i" class="st0" d="M16.7,10.6c0.4,0.4,0.6,0.9,0.6,1.5s-0.2,1.1-0.6,1.5c-0.9,0.8-2.2,0.8-3.1,0c-0.4-0.4-0.6-0.9-0.6-1.5
	s0.2-1.1,0.6-1.5C14.5,9.8,15.8,9.8,16.7,10.6z M18.6,15.4h3.5v0.5c0.7-0.3,1.5-0.5,2.3-0.4c0.8,0,1.5,0.2,2.2,0.5
	c0.7,0.4,1.3,1,1.7,1.7c0.4,0.7,0.6,1.4,0.7,2.2V27h-3.5v-7.1c0-0.2-0.1-0.4-0.2-0.6S25,19,24.9,18.9c-0.3-0.2-0.7-0.2-1-0.2
	s-0.6,0.1-0.9,0.2s-0.6,0.3-0.9,0.6V27h-3.5C18.6,27,18.6,15.4,18.6,15.4z M16.9,27h-3.5V15.4h3.5V27z"/>
</svg>
