<svg id="YT" xmlns="http://www.w3.org/2000/svg" width="40" height="40" viewBox="0 0 40 40">
  <defs>
    <style>
      .cls-1 {
        fill: #bb650e;
        fill-rule: evenodd;
      }
    </style>
  </defs>
  <path id="YouTube_icon" data-name="YouTube icon" class="cls-1" d="M31.014,20.089v0h0c-0.009,3.1-.526,6.163-1.623,6.976-1.241.92-7.183,0.88-9.373,0.88-2.282,0-7.873.025-9.155-.77-1.2-.742-1.824-3.927-1.876-7.085h0v0h0c0.051-3.159.677-6.563,1.876-7.306,1.282-.794,6.873-0.774,9.155-0.774,2.19,0,8.131-.036,9.373.884,1.1,0.813,1.614,4.093,1.623,7.2h0v0ZM17.9,15.747V24.2l6.288-4.229Z"/>
</svg>
