<svg id="TW" xmlns="http://www.w3.org/2000/svg" width="40" height="40" viewBox="0 0 40 40">
  <defs>
    <style>
      .cls-1 {
        fill: #bb650e;
        fill-rule: evenodd;
      }
    </style>
  </defs>
  <path id="tw_logo" data-name="tw logo" class="cls-1" d="M28.924,13.6a6.785,6.785,0,0,1-2.1.635A4,4,0,0,0,28.431,12a6.934,6.934,0,0,1-2.324.979A3.506,3.506,0,0,0,23.436,11.7a3.862,3.862,0,0,0-3.66,4.036,4.456,4.456,0,0,0,.095.92,10.1,10.1,0,0,1-7.543-4.218,4.344,4.344,0,0,0-.5,2.03,4.16,4.16,0,0,0,1.628,3.36,3.392,3.392,0,0,1-1.658-.5c0,0.016,0,.033,0,0.051a3.961,3.961,0,0,0,2.936,3.958,3.348,3.348,0,0,1-1.653.069,3.728,3.728,0,0,0,3.419,2.8,6.921,6.921,0,0,1-4.545,1.729,6.718,6.718,0,0,1-.873-0.057,9.669,9.669,0,0,0,5.61,1.814c6.732,0,10.413-6.151,10.413-11.485,0-.175,0-0.349-0.011-0.523A7.9,7.9,0,0,0,28.924,13.6Z" transform="translate(-0.016 0.313)"/>
</svg>
