<svg xmlns="http://www.w3.org/2000/svg" xmlns:xlink="http://www.w3.org/1999/xlink" width="242" height="30" viewBox="0 0 242 30">
  <defs>
    <style>
      .cls-1 {
        filter: url(#filter);
      }

      .cls-2 {
        fill: #bb650e;
        fill-rule: evenodd;
      }
    </style>
    <filter id="filter" filterUnits="userSpaceOnUse">
      <feFlood result="flood" flood-color="#ada29a"/>
      <feComposite result="composite" operator="in" in2="SourceGraphic"/>
      <feBlend result="blend" in2="SourceGraphic"/>
    </filter>
  </defs>
  <g id="BRAND_LOGO_HEADER" data-name="BRAND LOGO HEADER" class="cls-1">
    <path class="cls-2" d="M18962.1,983.607c-0.3,5.369-2.8,8.365-6.9,8.365-4.8,0-7.5-3.721-7.5-12.148s2.7-12.158,7.5-12.158c4.7,0,6.6,3.391,6.6,7.249h-2c0-3.2-1.6-5.473-4.6-5.473-3.4,0-5.4,2.773-5.4,10.382s2,10.376,5.4,10.376c2.9,0,4.6-2.539,4.8-6.593h2.1Z" transform="translate(-18772 -962)"/>
    <path id="Shape_1_copy_2" data-name="Shape 1 copy 2" class="cls-2" d="M18937,968.486h2.6l6.9,23.5h-2.3l-1.8-6.841h-8.2l-1.9,6.841h-2.2Zm4.9,14.882-3.6-13.228h0l-3.6,13.228h7.2Zm28.2-13.1h-6v-1.785h14.1v1.785h-6v21.714h-2.1V970.271Zm10.6-1.785h2v23.5h-2v-23.5Zm4.4,0h2.2l5.2,21.263h0.1l5.1-21.263h2.2l-6.1,23.5h-2.6Zm17.1,0h11.5v1.785h-9.4v8.552h8.8V980.6h-8.8v9.608h9.7v1.773h-11.8v-23.5Z" transform="translate(-18772 -962)"/>
    <path id="Shape_1_copy" data-name="Shape 1 copy" class="cls-2" d="M18925.8,962.553h-0.8V962h2.4v0.551h-0.9v2.437h-0.7v-2.437Zm1.9-.551h1l0.6,2.059h0.1L18930,962h0.9v2.988h-0.6v-2.114h0l-0.7,2.114h-0.5l-0.7-2.1h-0.1v2.1h-0.6V962Zm-6.5,0h-3.1a2.37,2.37,0,0,0-1.2.266,1.614,1.614,0,0,0-.6.8,21.732,21.732,0,0,1-2.5,6.508,12.606,12.606,0,0,1-3.3,3.562l-5.4-10.07a1.425,1.425,0,0,0-.6-0.82,2.189,2.189,0,0,0-1.1-.246h-4.6a0.624,0.624,0,0,0-.6.311,0.722,0.722,0,0,0,.1.755l7.5,13.888a16.946,16.946,0,0,0,10.9-3.992,16.508,16.508,0,0,0,5.2-7.276,9.441,9.441,0,0,0,.6-2.347,1.033,1.033,0,0,0-.2-0.964,1.572,1.572,0,0,0-1.1-.375m-94.3,28.919s-4.8-10.474-5.3-11.381a14.827,14.827,0,0,1-5.7,1.135l4.2,10.246a1.667,1.667,0,0,0,.7.8,1.867,1.867,0,0,0,1.1.257h4.4a0.623,0.623,0,0,0,.6-0.309,0.966,0.966,0,0,0,0-.75m96,0-7.4-13.471a16.206,16.206,0,0,1-4.9,1.394,21.591,21.591,0,0,1-5,.051l-7.3,11.983a0.712,0.712,0,0,0-.1.75,0.616,0.616,0,0,0,.6.352h4.8a2.042,2.042,0,0,0,1.1-.266,2.677,2.677,0,0,0,.7-0.793l5.5-10.21,5.1,10.21a2.614,2.614,0,0,0,.6.775,2.482,2.482,0,0,0,1.2.284h4.5a0.638,0.638,0,0,0,.6-0.286A1.023,1.023,0,0,0,18922.9,990.921Zm-122.4-13.289a35.74,35.74,0,0,0-5.4-.212l-4.7-14.351a2.224,2.224,0,0,0-.5-0.748,1.724,1.724,0,0,0-1-.319h-5.2a1.7,1.7,0,0,0-1,.326,1.983,1.983,0,0,0-.5.741l-6.8,18.341a27.13,27.13,0,0,1,4.3-2.786,27.836,27.836,0,0,1,3.3-1.3l3-9.6h0l3.1,10.376a29.077,29.077,0,0,0-6.8,2.255c-5,2.494-9.2,6.8-10.3,10.556a1.7,1.7,0,0,0,.1.741,0.626,0.626,0,0,0,.6.322h4.1a1.893,1.893,0,0,0,1.1-.247,1.634,1.634,0,0,0,.7-0.8c0.5-1.229,3.4-7.039,11.3-9.842,0.1-.009.1-0.018,0.1-0.026l3,9.85a1.168,1.168,0,0,0,.5.762,1.648,1.648,0,0,0,1.1.3h4.3a0.771,0.771,0,0,0,.7-0.356,0.864,0.864,0,0,0,0-.707l-3.8-11.608a23.463,23.463,0,0,1,4.7-.661,0.4,0.4,0,0,0,.3-0.489A0.49,0.49,0,0,0,18800.5,977.632Zm20-14.867a19.968,19.968,0,0,0-6.2-.763h-7.7a2.069,2.069,0,0,0-1.3.447,2.032,2.032,0,0,0-.5,1.48v26.988a1.019,1.019,0,0,0,.3.752,1.181,1.181,0,0,0,.8.311h3.9a1.181,1.181,0,0,0,.8-0.311,1.019,1.019,0,0,0,.3-0.752v-24.1h2.7a12.547,12.547,0,0,1,2.5.208,4.543,4.543,0,0,1,3.9,4.695,5.428,5.428,0,0,1-2.5,4.465,9.452,9.452,0,0,1-4.2,1.456,0.477,0.477,0,0,0-.3.511,0.411,0.411,0,0,0,.4.49c3.8-.1,7.1-0.84,9.1-2.335a7.016,7.016,0,0,0,2.9-6.184A7.638,7.638,0,0,0,18820.5,962.765Zm52.4,25.255a1.028,1.028,0,0,0-.3-0.747,0.94,0.94,0,0,0-.7-0.317h-9.6V963.065a1.022,1.022,0,0,0-.3-0.752,1.181,1.181,0,0,0-.8-0.311h-4a0.946,0.946,0,0,0-.7.311,1.022,1.022,0,0,0-.3.752v26.99a2.027,2.027,0,0,0,.5,1.478,1.882,1.882,0,0,0,1.3.447h13.9a0.943,0.943,0,0,0,.7-0.316,1.03,1.03,0,0,0,.3-0.747v-2.9Zm5.7-26.018a1.632,1.632,0,0,0-1.2.447,1.723,1.723,0,0,0-.6,1.479v26.126a1.722,1.722,0,0,0,.6,1.479,1.632,1.632,0,0,0,1.2.447h14.9a0.943,0.943,0,0,0,.7-0.316,1.03,1.03,0,0,0,.3-0.747v-2.9a1.028,1.028,0,0,0-.3-0.747,0.94,0.94,0,0,0-.7-0.317h-10.6v-7.688h8.9a0.94,0.94,0,0,0,.7-0.317,1.026,1.026,0,0,0,.3-0.746v-2.677a1.031,1.031,0,0,0-.3-0.748,0.938,0.938,0,0,0-.7-0.315h-8.9v-7.44h10.5a0.938,0.938,0,0,0,.7-0.315,1.031,1.031,0,0,0,.3-0.748v-2.9a1.028,1.028,0,0,0-.3-0.747,0.939,0.939,0,0,0-.7-0.316h-14.8m-35.3,18.606,8.7-17.54a0.743,0.743,0,0,0,.1-0.766,0.629,0.629,0,0,0-.6-0.3h-4.3a1.89,1.89,0,0,0-1.1.272,1.523,1.523,0,0,0-.7.794l-5.2,11.973h0l-5.3-11.973a1.4,1.4,0,0,0-.6-0.794,2.251,2.251,0,0,0-1.2-.272h-4.4a0.577,0.577,0,0,0-.5.3,0.7,0.7,0,0,0,0,.766l9,17.54v10.309a1.019,1.019,0,0,0,.3.752,0.946,0.946,0,0,0,.7.311h4a1.181,1.181,0,0,0,.8-0.311,1.692,1.692,0,0,0,.3-0.752V980.608Z" transform="translate(-18772 -962)"/>
  </g>
</svg>
