<svg id="BRAND_LOGO_HEADER" data-name="BRAND LOGO HEADER" xmlns="http://www.w3.org/2000/svg" width="242" height="67" viewBox="0 0 242 67">
  <defs>
    <style>
      .cls-1 {
        fill: #bb650e;
        fill-rule: evenodd;
      }
    </style>
  </defs>
  <path class="cls-1" d="M1342.08,1879.62c-0.29,5.37-2.74,8.37-6.92,8.37-4.75,0-7.43-3.73-7.43-12.15,0-8.44,2.68-12.16,7.43-12.16s6.69,3.39,6.69,7.25h-2.08c0-3.2-1.6-5.48-4.61-5.48-3.32,0-5.35,2.78-5.35,10.39s2.03,10.37,5.35,10.37c2.94,0,4.61-2.54,4.83-6.59h2.09Z" transform="translate(-1152 -1858)"/>
  <path id="Shape_1_copy_2" data-name="Shape 1 copy 2" class="cls-1" d="M1317,1864.5h2.61l6.85,23.5h-2.21l-1.88-6.84h-8.13l-1.89,6.84h-2.21Zm4.91,14.88-3.58-13.23h-0.06l-3.58,13.23h7.22Zm28.23-13.1h-5.99v-1.78h14.06v1.78h-5.99V1888h-2.08v-21.72Zm10.53-1.78h2.08V1888h-2.08v-23.5Zm4.46,0h2.21l5.17,21.26h0.06l5.18-21.26h2.21l-6.12,23.5h-2.6Zm17.07,0h11.51v1.78h-9.43v8.56h8.81v1.78h-8.81v9.6H1394V1888h-11.8v-23.5Z" transform="translate(-1152 -1858)"/>
  <path id="Shape_1_copy" data-name="Shape 1 copy" class="cls-1" d="M1305.85,1858.57h-0.89v-0.56h2.44v0.56h-0.89V1861h-0.66v-2.43Zm1.89-.56h0.92l0.7,2.06h0.01l0.65-2.06h0.92V1861h-0.61v-2.11h-0.01l-0.73,2.11h-0.5l-0.73-2.09h0V1861h-0.62v-2.99Zm-6.56,0h-3.12a2.044,2.044,0,0,0-1.1.27,1.207,1.207,0,0,0-.61.8,22.305,22.305,0,0,1-2.56,6.51,11.478,11.478,0,0,1-3.27,3.56l-5.37-10.07a1.688,1.688,0,0,0-.67-0.82,2.113,2.113,0,0,0-1.12-.25h-4.56a0.626,0.626,0,0,0-.6.32,0.788,0.788,0,0,0,.06.75l7.51,13.89a17.113,17.113,0,0,0,10.97-3.99,16.775,16.775,0,0,0,5.17-7.28,15.216,15.216,0,0,0,.61-2.35,1.088,1.088,0,0,0-.24-0.96,1.475,1.475,0,0,0-1.1-.38m-94.33,28.92s-4.78-10.47-5.22-11.38a15.186,15.186,0,0,1-5.71,1.14l4.22,10.24a1.678,1.678,0,0,0,.62.81,2.139,2.139,0,0,0,1.15.25h4.38a0.644,0.644,0,0,0,.61-0.31,0.812,0.812,0,0,0-.05-0.75m96.01,0-7.35-13.47a16.6,16.6,0,0,1-4.88,1.4,22.13,22.13,0,0,1-5.07.05l-7.26,11.98a0.833,0.833,0,0,0-.09.75,0.631,0.631,0,0,0,.62.35h4.75a1.773,1.773,0,0,0,1.79-1.06l5.56-10.21,5.06,10.21a1.912,1.912,0,0,0,.65.78,2.138,2.138,0,0,0,1.2.28h4.48a0.654,0.654,0,0,0,.59-0.28A0.765,0.765,0,0,0,1302.86,1886.93Zm-122.41-13.29a34.745,34.745,0,0,0-5.32-.21l-4.71-14.35a1.779,1.779,0,0,0-.58-0.75,1.612,1.612,0,0,0-.94-0.32h-5.22a1.511,1.511,0,0,0-.94.33,1.673,1.673,0,0,0-.58.74l-6.78,18.34a21.862,21.862,0,0,1,7.65-4.08l2.97-9.6h0.02l3.1,10.38a27.9,27.9,0,0,0-6.79,2.25c-5.08,2.5-9.25,6.8-10.3,10.56a0.928,0.928,0,0,0,.06.74,0.653,0.653,0,0,0,.61.32h4.13a1.979,1.979,0,0,0,1.06-.24,1.762,1.762,0,0,0,.67-0.8c0.54-1.23,3.38-7.04,11.37-9.84,0.03-.01.05-0.02,0.08-0.03l2.95,9.85a1.334,1.334,0,0,0,.49.76,1.809,1.809,0,0,0,1.17.3h4.28a0.7,0.7,0,0,0,.66-0.35,0.954,0.954,0,0,0,.01-0.71l-3.82-11.61a24.469,24.469,0,0,1,4.73-.66,0.42,0.42,0,0,0,.35-0.49A0.477,0.477,0,0,0,1180.45,1873.64Zm20.03-14.86a19.166,19.166,0,0,0-6.14-.77h-7.73a1.87,1.87,0,0,0-1.28.45,1.85,1.85,0,0,0-.53,1.48v26.99a1.035,1.035,0,0,0,.32.75,1.067,1.067,0,0,0,.75.31h3.97a1.109,1.109,0,0,0,.76-0.31,1.067,1.067,0,0,0,.31-0.75v-24.1h2.69a11.055,11.055,0,0,1,2.47.21,4.54,4.54,0,0,1,3.9,4.69,5.338,5.338,0,0,1-2.45,4.46,9.415,9.415,0,0,1-4.19,1.46,0.443,0.443,0,0,0-.35.51,0.46,0.46,0,0,0,.4.49c3.83-.1,7.12-0.84,9.11-2.33a6.991,6.991,0,0,0,2.93-6.19A7.6,7.6,0,0,0,1200.48,1858.78Zm52.45,25.25a1.061,1.061,0,0,0-.31-0.74,1.035,1.035,0,0,0-.75-0.32h-9.59v-23.89a1.018,1.018,0,0,0-.32-0.75,1.035,1.035,0,0,0-.75-0.32h-3.97a1.035,1.035,0,0,0-.75.32,1.018,1.018,0,0,0-.32.75v26.99a1.865,1.865,0,0,0,.53,1.48,1.913,1.913,0,0,0,1.28.44h13.89a1.067,1.067,0,0,0,.75-0.31,1.1,1.1,0,0,0,.31-0.75v-2.9Zm5.71-26.02a1.693,1.693,0,0,0-1.81,1.93v26.13a1.9,1.9,0,0,0,.52,1.48,1.921,1.921,0,0,0,1.29.44h14.85a1.067,1.067,0,0,0,.75-0.31,1.1,1.1,0,0,0,.31-0.75v-2.9a1.061,1.061,0,0,0-.31-0.74,1.035,1.035,0,0,0-.75-0.32h-10.61v-7.69h8.88a1.035,1.035,0,0,0,.75-0.32,1.02,1.02,0,0,0,.31-0.74v-2.68a1.058,1.058,0,0,0-1.06-1.06h-8.88v-7.44h10.5a1.035,1.035,0,0,0,.75-0.32,1.067,1.067,0,0,0,.31-0.75v-2.89a1.076,1.076,0,0,0-1.06-1.07h-14.74m-35.37,18.61,8.77-17.54a0.886,0.886,0,0,0,.05-0.77,0.645,0.645,0,0,0-.59-0.3h-4.27a2.089,2.089,0,0,0-1.17.28,1.578,1.578,0,0,0-.62.79l-5.24,11.97h-0.04l-5.24-11.97a1.578,1.578,0,0,0-.62-0.79,2.089,2.089,0,0,0-1.17-.28h-4.39a0.633,0.633,0,0,0-.59.3,0.823,0.823,0,0,0,.05.77l8.96,17.54v10.31a1.059,1.059,0,0,0,1.07,1.06h3.96a1.091,1.091,0,0,0,.76-0.31,1.076,1.076,0,0,0,.32-0.75v-10.31Z" transform="translate(-1152 -1858)"/>
  <path id="The_next_generation_of_weed_control" data-name="The next generation of weed control" class="cls-1" d="M1160.5,1910.76h-8.49v0.79h3.78v10.2h0.93v-10.2h3.78v-0.79Zm2.48-.6h-0.91v11.59h0.91v-5.59a3,3,0,0,1,.96-1.42,2.294,2.294,0,0,1,1.49-.52,1.8,1.8,0,0,1,1.46.54,2.41,2.41,0,0,1,.47,1.62v5.37h0.9v-5.36a3.323,3.323,0,0,0-.65-2.22,2.464,2.464,0,0,0-1.96-.73,3.109,3.109,0,0,0-1.53.39,3.274,3.274,0,0,0-1.14,1.14v-4.81Zm13.7,10.3-0.57-.43a2.723,2.723,0,0,1-1.01.84,2.9,2.9,0,0,1-1.28.27,2.565,2.565,0,0,1-2.02-.93,3.4,3.4,0,0,1-.8-2.31v-0.17h5.86v-0.51a4.075,4.075,0,0,0-.88-2.77,2.945,2.945,0,0,0-2.37-1.01,3.2,3.2,0,0,0-1.77.53,3.586,3.586,0,0,0-1.28,1.49,4.715,4.715,0,0,0-.46,2.12v0.32a4.494,4.494,0,0,0,.47,2.06,3.5,3.5,0,0,0,1.32,1.43,3.57,3.57,0,0,0,1.89.51,3.3,3.3,0,0,0,2.9-1.44h0Zm-1.4-5.52a3.015,3.015,0,0,1,.67,1.92v0.1h-4.92a3.44,3.44,0,0,1,.86-2.01,2.251,2.251,0,0,1,1.72-.75A2.113,2.113,0,0,1,1175.28,1914.94Zm7.12-1.35v8.16h0.9v-5.59a3.149,3.149,0,0,1,.96-1.42,2.313,2.313,0,0,1,1.49-.52,1.812,1.812,0,0,1,1.47.54,2.464,2.464,0,0,1,.47,1.62v5.37h0.9v-5.36a3.323,3.323,0,0,0-.65-2.22,2.487,2.487,0,0,0-1.97-.73,3.045,3.045,0,0,0-1.52.39,3.329,3.329,0,0,0-1.15,1.15l-0.03-1.39h-0.87Zm14.62,6.87-0.57-.43a2.723,2.723,0,0,1-1.01.84,2.946,2.946,0,0,1-1.29.27,2.531,2.531,0,0,1-2.01-.93,3.35,3.35,0,0,1-.8-2.31v-0.17h5.85v-0.51a4.123,4.123,0,0,0-.87-2.77,2.972,2.972,0,0,0-2.37-1.01,3.251,3.251,0,0,0-1.78.53,3.659,3.659,0,0,0-1.28,1.49,4.852,4.852,0,0,0-.46,2.12v0.32a4.494,4.494,0,0,0,.47,2.06,3.645,3.645,0,0,0,1.32,1.43,3.57,3.57,0,0,0,1.89.51,3.329,3.329,0,0,0,2.91-1.44h0Zm-1.41-5.52a3.021,3.021,0,0,1,.68,1.92v0.1h-4.92a3.433,3.433,0,0,1,.85-2.01,2.272,2.272,0,0,1,1.73-.75A2.093,2.093,0,0,1,1195.61,1914.94Zm3.71-1.35h-1.07l2.79,4-2.9,4.16h1.07l2.34-3.46,2.33,3.46h1.07l-2.9-4.16,2.78-4h-1.08l-2.21,3.31Zm7.69-2.09v2.09h-1.51v0.74h1.51v5.44a2.554,2.554,0,0,0,.43,1.59,1.613,1.613,0,0,0,1.36.54,2.837,2.837,0,0,0,.97-0.13l-0.04-.73a5.878,5.878,0,0,1-.74.08,0.972,0.972,0,0,1-.82-0.34,1.724,1.724,0,0,1-.25-1.01v-5.44h1.7v-0.74h-1.7v-2.09h-0.91Zm7.91,6.21a4.963,4.963,0,0,0,.86,3.06,2.756,2.756,0,0,0,2.29,1.13,2.916,2.916,0,0,0,2.54-1.21v1.03a2.59,2.59,0,0,1-.66,1.85,2.3,2.3,0,0,1-1.77.67,2.858,2.858,0,0,1-2.29-1.18l-0.51.54a3.1,3.1,0,0,0,1.23,1.02,3.68,3.68,0,0,0,1.63.38,3.187,3.187,0,0,0,2.4-.92,3.416,3.416,0,0,0,.89-2.5v-7.99h-0.85l-0.04,1.17a2.872,2.872,0,0,0-2.55-1.32,2.751,2.751,0,0,0-2.32,1.12,4.848,4.848,0,0,0-.85,3.03v0.12Zm1.55-2.6a2.081,2.081,0,0,1,1.78-.89,2.526,2.526,0,0,1,1.45.41,2.552,2.552,0,0,1,.91,1.2v3.79a2.414,2.414,0,0,1-2.37,1.5,2.062,2.062,0,0,1-1.78-.91,4.3,4.3,0,0,1-.62-2.46A4.594,4.594,0,0,1,1216.47,1915.11Zm13.51,5.35-0.57-.43a2.723,2.723,0,0,1-1.01.84,2.916,2.916,0,0,1-1.29.27,2.531,2.531,0,0,1-2.01-.93,3.4,3.4,0,0,1-.8-2.31v-0.17h5.86v-0.51a4.126,4.126,0,0,0-.88-2.77,2.945,2.945,0,0,0-2.37-1.01,3.251,3.251,0,0,0-1.78.53,3.637,3.637,0,0,0-1.27,1.49,4.715,4.715,0,0,0-.46,2.12v0.32a4.371,4.371,0,0,0,.47,2.06,3.55,3.55,0,0,0,1.31,1.43,3.63,3.63,0,0,0,1.9.51,3.311,3.311,0,0,0,2.9-1.44h0Zm-1.4-5.52a3.015,3.015,0,0,1,.67,1.92v0.1h-4.92a3.5,3.5,0,0,1,.85-2.01,2.287,2.287,0,0,1,1.73-.75A2.113,2.113,0,0,1,1228.58,1914.94Zm3.34-1.35v8.16h0.91v-5.59a3.055,3.055,0,0,1,.95-1.42,2.313,2.313,0,0,1,1.49-.52,1.812,1.812,0,0,1,1.47.54,2.464,2.464,0,0,1,.47,1.62v5.37h0.9v-5.36a3.323,3.323,0,0,0-.65-2.22,2.487,2.487,0,0,0-1.97-.73,3.045,3.045,0,0,0-1.52.39,3.329,3.329,0,0,0-1.15,1.15l-0.03-1.39h-0.87Zm14.62,6.87-0.57-.43a2.723,2.723,0,0,1-1.01.84,2.916,2.916,0,0,1-1.29.27,2.531,2.531,0,0,1-2.01-.93,3.35,3.35,0,0,1-.8-2.31v-0.17h5.85v-0.51a4.123,4.123,0,0,0-.87-2.77,2.972,2.972,0,0,0-2.37-1.01,3.251,3.251,0,0,0-1.78.53,3.735,3.735,0,0,0-1.28,1.49,4.852,4.852,0,0,0-.46,2.12v0.32a4.376,4.376,0,0,0,.48,2.06,3.55,3.55,0,0,0,1.31,1.43,3.6,3.6,0,0,0,1.89.51,3.329,3.329,0,0,0,2.91-1.44h0Zm-1.4-5.52a3.073,3.073,0,0,1,.67,1.92v0.1h-4.92a3.433,3.433,0,0,1,.85-2.01,2.272,2.272,0,0,1,1.73-.75A2.128,2.128,0,0,1,1245.14,1914.94Zm7.16-1.41a1.648,1.648,0,0,0-.6-0.09,2.417,2.417,0,0,0-2.32,1.44l-0.01-1.29h-0.89v8.16h0.9v-5.61a2.673,2.673,0,0,1,.84-1.37,2.245,2.245,0,0,1,1.44-.47,2.935,2.935,0,0,1,.61.06Zm7.25,8.22v-0.09a4.889,4.889,0,0,1-.25-1.77v-3.87a2.407,2.407,0,0,0-.81-1.9,3.189,3.189,0,0,0-2.17-.68,3.463,3.463,0,0,0-2.23.71,2.093,2.093,0,0,0-.92,1.68l0.92,0.01a1.414,1.414,0,0,1,.62-1.16,2.489,2.489,0,0,1,1.57-.48,2.222,2.222,0,0,1,1.58.5,1.778,1.778,0,0,1,.54,1.38V1917h-1.65a4.729,4.729,0,0,0-2.77.7,2.165,2.165,0,0,0-1,1.88,2.113,2.113,0,0,0,.73,1.66,2.756,2.756,0,0,0,1.91.66,3.635,3.635,0,0,0,1.57-.34,3.181,3.181,0,0,0,1.22-.95,4.16,4.16,0,0,0,.17,1.14h0.97Zm-5.15-1.1a1.454,1.454,0,0,1-.51-1.14,1.481,1.481,0,0,1,.76-1.32,4.09,4.09,0,0,1,2.13-.49h1.62v1.79a2.557,2.557,0,0,1-1.04,1.17,3.085,3.085,0,0,1-1.63.44A1.93,1.93,0,0,1,1254.4,1920.65Zm7.82-9.15v2.09h-1.51v0.74h1.51v5.44a2.554,2.554,0,0,0,.43,1.59,1.613,1.613,0,0,0,1.36.54,2.837,2.837,0,0,0,.97-0.13l-0.04-.73a6.069,6.069,0,0,1-.74.08,0.959,0.959,0,0,1-.82-0.34,1.724,1.724,0,0,1-.25-1.01v-5.44h1.7v-0.74h-1.7v-2.09h-0.91Zm5.51,2.09h-0.91v8.16h0.91v-8.16Zm-0.9-1.93a0.611,0.611,0,0,0,.45.17,0.635,0.635,0,0,0,.46-0.17,0.573,0.573,0,0,0,.17-0.43,0.558,0.558,0,0,0-.17-0.43,0.6,0.6,0,0,0-.46-0.18,0.58,0.58,0,0,0-.45.18,0.6,0.6,0,0,0-.17.43A0.613,0.613,0,0,0,1266.83,1911.66Zm2.86,6.07a4.391,4.391,0,0,0,1.02,3.03,3.406,3.406,0,0,0,2.66,1.14,3.58,3.58,0,0,0,1.9-.51,3.4,3.4,0,0,0,1.29-1.46,4.758,4.758,0,0,0,.46-2.13v-0.19a4.418,4.418,0,0,0-1.01-3.03,3.406,3.406,0,0,0-2.66-1.14,3.44,3.44,0,0,0-3.2,1.99,4.852,4.852,0,0,0-.46,2.12v0.18Zm0.91-.1a3.828,3.828,0,0,1,.77-2.48,2.435,2.435,0,0,1,1.98-.95,2.544,2.544,0,0,1,1.44.43,2.847,2.847,0,0,1,.98,1.2,4.2,4.2,0,0,1,.35,1.72v0.17a3.863,3.863,0,0,1-.76,2.48,2.587,2.587,0,0,1-3.99,0,3.694,3.694,0,0,1-.77-2.4v-0.17Zm8.29-4.04v8.16h0.91v-5.59a3,3,0,0,1,.96-1.42,2.294,2.294,0,0,1,1.49-.52,1.8,1.8,0,0,1,1.46.54,2.41,2.41,0,0,1,.47,1.62v5.37h0.9v-5.36a3.323,3.323,0,0,0-.65-2.22,2.464,2.464,0,0,0-1.96-.73,3.055,3.055,0,0,0-1.53.39,3.329,3.329,0,0,0-1.15,1.15l-0.03-1.39h-0.87Zm11.81,4.14a4.391,4.391,0,0,0,1.02,3.03,3.406,3.406,0,0,0,2.66,1.14,3.58,3.58,0,0,0,1.9-.51,3.4,3.4,0,0,0,1.29-1.46,4.758,4.758,0,0,0,.46-2.13v-0.19a4.374,4.374,0,0,0-1.02-3.03,3.371,3.371,0,0,0-2.65-1.14,3.44,3.44,0,0,0-3.2,1.99,4.852,4.852,0,0,0-.46,2.12v0.18Zm0.91-.1a3.828,3.828,0,0,1,.77-2.48,2.435,2.435,0,0,1,1.98-.95,2.544,2.544,0,0,1,1.44.43,2.847,2.847,0,0,1,.98,1.2,4.2,4.2,0,0,1,.35,1.72v0.17a3.863,3.863,0,0,1-.76,2.48,2.587,2.587,0,0,1-3.99,0,3.694,3.694,0,0,1-.77-2.4v-0.17Zm9.86,4.12v-7.42h1.95v-0.74h-1.95v-1.02a1.949,1.949,0,0,1,.41-1.32,1.493,1.493,0,0,1,1.17-.46,3.579,3.579,0,0,1,.83.09l0.07-.75a3.346,3.346,0,0,0-.97-0.13,2.375,2.375,0,0,0-1.78.67,2.677,2.677,0,0,0-.64,1.93v0.99h-1.36v0.74h1.36v7.42h0.91Zm7.58-8.16h-0.93l2.38,8.16h0.77l2.07-6.47,0.1-.45,0.1,0.45,2.11,6.47h0.77l2.39-8.16h-0.94l-1.68,6.26-0.18.79-0.21-.86-1.95-6.19h-0.77l-1.97,6.24-0.18.74-0.14-.7Zm17.57,6.87-0.57-.43a2.723,2.723,0,0,1-1.01.84,2.916,2.916,0,0,1-1.29.27,2.531,2.531,0,0,1-2.01-.93,3.35,3.35,0,0,1-.8-2.31v-0.17h5.85v-0.51a4.123,4.123,0,0,0-.87-2.77,2.972,2.972,0,0,0-2.37-1.01,3.251,3.251,0,0,0-1.78.53,3.735,3.735,0,0,0-1.28,1.49,4.852,4.852,0,0,0-.46,2.12v0.32a4.494,4.494,0,0,0,.47,2.06,3.645,3.645,0,0,0,1.32,1.43,3.6,3.6,0,0,0,1.89.51,3.329,3.329,0,0,0,2.91-1.44h0Zm-1.41-5.52a3.021,3.021,0,0,1,.68,1.92v0.1h-4.92a3.433,3.433,0,0,1,.85-2.01,2.272,2.272,0,0,1,1.73-.75A2.093,2.093,0,0,1,1325.21,1914.94Zm9.43,5.52-0.57-.43a2.723,2.723,0,0,1-1.01.84,2.9,2.9,0,0,1-1.28.27,2.565,2.565,0,0,1-2.02-.93,3.4,3.4,0,0,1-.8-2.31v-0.17h5.86v-0.51a4.075,4.075,0,0,0-.88-2.77,2.945,2.945,0,0,0-2.37-1.01,3.2,3.2,0,0,0-1.77.53,3.586,3.586,0,0,0-1.28,1.49,4.715,4.715,0,0,0-.46,2.12v0.32a4.494,4.494,0,0,0,.47,2.06,3.5,3.5,0,0,0,1.32,1.43,3.57,3.57,0,0,0,1.89.51,3.3,3.3,0,0,0,2.9-1.44h0Zm-1.4-5.52a3.015,3.015,0,0,1,.67,1.92v0.1h-4.92a3.44,3.44,0,0,1,.86-2.01,2.251,2.251,0,0,1,1.72-.75A2.113,2.113,0,0,1,1333.24,1914.94Zm2.98,2.76a4.881,4.881,0,0,0,.87,3.06,2.739,2.739,0,0,0,2.29,1.14,2.927,2.927,0,0,0,2.56-1.24l0.04,1.09h0.85v-11.59h-0.91v4.58a2.844,2.844,0,0,0-2.53-1.3,2.751,2.751,0,0,0-2.32,1.12,4.888,4.888,0,0,0-.85,3.03v0.11Zm1.56-2.59a2.057,2.057,0,0,1,1.78-.89,2.414,2.414,0,0,1,2.36,1.59v3.83a2.448,2.448,0,0,1-2.38,1.48,2.045,2.045,0,0,1-1.77-.91,4.226,4.226,0,0,1-.63-2.46A4.513,4.513,0,0,1,1337.78,1915.11Zm12.33,5.15a3.88,3.88,0,0,1-.68-2.43v-0.27a3.986,3.986,0,0,1,.68-2.47,2.481,2.481,0,0,1,3.51-.3,2.239,2.239,0,0,1,.69,1.55h0.87a2.941,2.941,0,0,0-.93-2.11,3.2,3.2,0,0,0-2.23-.79,3.184,3.184,0,0,0-3.07,1.93,4.987,4.987,0,0,0-.43,2.14v0.27a4.477,4.477,0,0,0,.95,3,3.16,3.16,0,0,0,2.56,1.12,3.469,3.469,0,0,0,1.53-.35,2.926,2.926,0,0,0,1.15-.96,2.478,2.478,0,0,0,.47-1.36h-0.87a1.929,1.929,0,0,1-.69,1.38,2.44,2.44,0,0,1-1.59.53A2.268,2.268,0,0,1,1350.11,1920.26Zm6.38-2.53a4.391,4.391,0,0,0,1.02,3.03,3.406,3.406,0,0,0,2.66,1.14,3.58,3.58,0,0,0,1.9-.51,3.4,3.4,0,0,0,1.29-1.46,4.758,4.758,0,0,0,.46-2.13v-0.19a4.374,4.374,0,0,0-1.02-3.03,3.371,3.371,0,0,0-2.65-1.14,3.44,3.44,0,0,0-3.2,1.99,4.852,4.852,0,0,0-.46,2.12v0.18Zm0.91-.1a3.828,3.828,0,0,1,.77-2.48,2.435,2.435,0,0,1,1.98-.95,2.544,2.544,0,0,1,1.44.43,2.847,2.847,0,0,1,.98,1.2,4.2,4.2,0,0,1,.35,1.72v0.17a3.863,3.863,0,0,1-.76,2.48,2.587,2.587,0,0,1-3.99,0,3.694,3.694,0,0,1-.77-2.4v-0.17Zm8.29-4.04v8.16h0.91v-5.59a3,3,0,0,1,.96-1.42,2.294,2.294,0,0,1,1.49-.52,1.8,1.8,0,0,1,1.46.54,2.41,2.41,0,0,1,.47,1.62v5.37h0.9v-5.36a3.323,3.323,0,0,0-.65-2.22,2.464,2.464,0,0,0-1.96-.73,3.055,3.055,0,0,0-1.53.39,3.329,3.329,0,0,0-1.15,1.15l-0.03-1.39h-0.87Zm9.04-2.09v2.09h-1.51v0.74h1.51v5.44a2.556,2.556,0,0,0,.42,1.59,1.638,1.638,0,0,0,1.36.54,2.837,2.837,0,0,0,.97-0.13l-0.04-.73a5.96,5.96,0,0,1-.73.08,0.98,0.98,0,0,1-.83-0.34,1.729,1.729,0,0,1-.24-1.01v-5.44h1.7v-0.74h-1.7v-2.09h-0.91Zm8.3,2.03a1.576,1.576,0,0,0-.6-0.09,2.413,2.413,0,0,0-2.31,1.44l-0.01-1.29h-0.89v8.16h0.9v-5.61a2.673,2.673,0,0,1,.84-1.37,2.245,2.245,0,0,1,1.44-.47,3.005,3.005,0,0,1,.61.06Zm0.76,4.2a4.391,4.391,0,0,0,1.02,3.03,3.4,3.4,0,0,0,2.65,1.14,3.59,3.59,0,0,0,1.91-.51,3.531,3.531,0,0,0,1.29-1.46,4.758,4.758,0,0,0,.46-2.13v-0.19a4.374,4.374,0,0,0-1.02-3.03,3.385,3.385,0,0,0-2.65-1.14,3.44,3.44,0,0,0-3.2,1.99,4.715,4.715,0,0,0-.46,2.12v0.18Zm0.91-.1a3.828,3.828,0,0,1,.77-2.48,2.435,2.435,0,0,1,1.98-.95,2.544,2.544,0,0,1,1.44.43,2.922,2.922,0,0,1,.98,1.2,4.2,4.2,0,0,1,.35,1.72v0.17a3.809,3.809,0,0,1-.77,2.48,2.446,2.446,0,0,1-1.99.94,2.479,2.479,0,0,1-2-.94,3.746,3.746,0,0,1-.76-2.4v-0.17Zm9.31-7.47h-0.91v11.59h0.91v-11.59Z" transform="translate(-1152 -1858)"/>
</svg>
