<svg id="2e660ee3-219c-4df2-a57a-2f998ec6470e" data-name="Layer 1" xmlns="http://www.w3.org/2000/svg" viewBox="0 0 172 25"><title>logo-solutions</title><path d="M77.17,6.27L76.59,11l0.25-.32a4,4,0,0,1,1.51-1.36,2.4,2.4,0,0,1,1-.18,0.56,0.56,0,0,1,.6.7c-0.06.71-.16,1.43-0.24,2.14s-0.2,1.53-.29,2.3a3.2,3.2,0,0,0,0,.38l0.1,0.05c0.23-.24.45-0.49,0.69-0.72s0.18-.41.42-0.22,0,0.36-.08.48a11.69,11.69,0,0,1-1.07,1.11,1.08,1.08,0,0,1-.59.19A0.46,0.46,0,0,1,78.3,15c0.05-.69.15-1.38,0.23-2.07,0.1-.85.22-1.71,0.32-2.56,0-.4-0.15-0.54-0.48-0.31a11.8,11.8,0,0,0-1.74,1.42,2.05,2.05,0,0,0-.22,1q-0.18,1.33-.33,2.66a0.22,0.22,0,0,1-.26.25H75c0.06-.5.11-1,0.16-1.43q0.4-3.27.81-6.54c0-.22-0.1-0.23-0.25-0.25s-0.59-.06-0.89-0.12A0.68,0.68,0,0,1,74.65,7a0.58,0.58,0,0,1,.19-0.22C75.6,6.58,76.35,6.43,77.17,6.27Z"/><path d="M5.79,15.62c-0.65-.16-1.3-0.32-1.95-0.49a0.29,0.29,0,0,1-.15-0.23q0.07-.84.18-1.68A0.35,0.35,0,0,1,4.07,13c0.17-.06.25,0.06,0.29,0.22,0.1,0.43.2,0.86,0.3,1.29a0.35,0.35,0,0,0,.38.36,7.75,7.75,0,0,0,1.24-.06,1.36,1.36,0,0,0,1.09-1.16,1.52,1.52,0,0,0-.49-1.59c-0.49-.39-1-0.76-1.51-1.14a2.3,2.3,0,0,1-1-2.25,2.23,2.23,0,0,1,2-2,5.82,5.82,0,0,1,2.48.26,0.32,0.32,0,0,1,.17.25C9,7.73,9,8.27,8.89,8.81a0.29,0.29,0,0,1-.19.2,0.39,0.39,0,0,1-.29-0.16C8.28,8.41,8.17,8,8.07,7.53a0.32,0.32,0,0,0-.38-0.3c-0.29,0-.58,0-0.86,0A1.34,1.34,0,0,0,5.61,8a1.49,1.49,0,0,0,.22,1.59,3.23,3.23,0,0,0,.56.51c0.38,0.29.78,0.54,1.16,0.83a2.44,2.44,0,0,1,.93,2.76,2.6,2.6,0,0,1-2.37,1.82H5.81Z"/><path d="M54.24,9.81h-1c-0.08-.56,0-0.6.47-0.6s0.65,0,.71-0.64a2.24,2.24,0,0,1,.95-1.88,3,3,0,0,1,2.39-.35,0.56,0.56,0,0,1,.47.5,0.65,0.65,0,0,1-.35.66,0.59,0.59,0,0,1-.71,0C57,7.31,56.86,7.1,56.69,6.94a0.44,0.44,0,0,0-.32-0.12,0.85,0.85,0,0,0-.73.68c-0.12.54-.2,1.1-0.3,1.71h1.28c0.16,0,.35,0,0.33.23s-0.07.38-.35,0.36-0.64,0-1,0a0.32,0.32,0,0,0-.4.35c-0.09.9-.18,1.8-0.29,2.7C54.83,13.9,54.75,15,54.54,16A2.73,2.73,0,0,1,53,18.12a4.23,4.23,0,0,1-1.28.26,0.57,0.57,0,0,1-.63-0.48,0.76,0.76,0,0,1,.36-0.76,0.6,0.6,0,0,1,.78.16c0.12,0.13.22,0.27,0.35,0.44a1.26,1.26,0,0,0,.73-0.8A13.57,13.57,0,0,0,53.72,15c0.2-1.66.36-3.32,0.53-5A1.75,1.75,0,0,0,54.24,9.81Z"/><path d="M22.54,13.78c-0.42.45-.8,0.9-1.23,1.31a1.77,1.77,0,0,1-1.23.51,0.73,0.73,0,0,1-.84-0.91c0.08-.72.19-1.44,0.28-2.17s0.2-1.47.29-2.2a2.44,2.44,0,0,0,0-.31l-0.1,0c-0.25.25-.49,0.52-0.76,0.76a0.49,0.49,0,0,1-.36.16c-0.22-.12,0-0.3,0-0.42a7,7,0,0,1,.74-0.93A1.66,1.66,0,0,1,20,9.17c0.65-.21,1,0.07.86,0.75q-0.3,2.21-.58,4.43a0.47,0.47,0,0,0,.09.38,0.43,0.43,0,0,0,.39-0.05,17.13,17.13,0,0,0,1.73-1.48,1.85,1.85,0,0,0,.2-0.95q0.18-1.38.34-2.76a0.25,0.25,0,0,1,.29-0.27h0.77l-0.66,5.5,0.14,0.06L24.32,14a1.16,1.16,0,0,1,.21-0.21,0.22,0.22,0,0,1,.2,0,0.23,0.23,0,0,1,.08.19,2.88,2.88,0,0,1-1.65,1.57,0.54,0.54,0,0,1-.75-0.65c0-.2,0-0.4.06-0.59Z"/><path d="M39.38,15.47c0.18-1.85.48-3.62,0.64-5.41L39.87,10l-0.68.74A1.41,1.41,0,0,1,39,11a0.22,0.22,0,0,1-.19,0,0.27,0.27,0,0,1-.09-0.21,2.76,2.76,0,0,1,1.7-1.59,0.52,0.52,0,0,1,.68.58c0,0.39-.08.79-0.13,1.24l0.19-.21c0.35-.37.68-0.76,1-1.11a1.93,1.93,0,0,1,1.16-.52,0.74,0.74,0,0,1,.89.89c-0.17,1.39-.36,2.78-0.54,4.17a3.82,3.82,0,0,0,0,.48l0.08,0.06c0.21-.22.41-0.46,0.65-0.67s0.21-.46.47-0.26,0,0.42-.13.55a10.62,10.62,0,0,1-1,1,1,1,0,0,1-.46.17,0.52,0.52,0,0,1-.7-0.64c0.13-1.12.27-2.24,0.41-3.35,0-.39.12-0.79,0.16-1.18a0.46,0.46,0,0,0-.08-0.35,0.63,0.63,0,0,0-.4,0,1.05,1.05,0,0,0-.3.2,10.31,10.31,0,0,1-.92.75,1.63,1.63,0,0,0-.71,1.4c-0.08.93-.21,1.86-0.34,2.79a0.32,0.32,0,0,1-.21.22A8.1,8.1,0,0,1,39.38,15.47Z"/><path d="M9.74,13.1a4.48,4.48,0,0,1,.87-2.93,2.62,2.62,0,0,1,2-1.08,1.89,1.89,0,0,1,2,1.49,4.79,4.79,0,0,1-.82,4.06,2.59,2.59,0,0,1-1.7,1,2,2,0,0,1-2.33-2C9.73,13.48,9.74,13.29,9.74,13.1Zm1.06,0a13.85,13.85,0,0,0,.28,1.52,0.75,0.75,0,0,0,1,.5,1.57,1.57,0,0,0,1.05-1.06,6.25,6.25,0,0,0,.45-2.82,3.9,3.9,0,0,0-.19-1,0.8,0.8,0,0,0-1-.59,1.39,1.39,0,0,0-1,.93A7,7,0,0,0,10.8,13.12Z"/><path d="M61.92,11.63a4.74,4.74,0,0,1-.91,3,2.59,2.59,0,0,1-2.07,1.08A1.85,1.85,0,0,1,57,14.12a4.8,4.8,0,0,1,.8-3.94,2.44,2.44,0,0,1,2.27-1.06,2,2,0,0,1,1.77,1.73C61.89,11.13,61.9,11.42,61.92,11.63Zm-1.14-.16c0-.19,0-0.54-0.09-0.89a1.46,1.46,0,0,0-.1-0.35,0.91,0.91,0,0,0-1.53-.36,2.42,2.42,0,0,0-.52.72A6.6,6.6,0,0,0,58.11,14a2.26,2.26,0,0,0,.18.67,0.79,0.79,0,0,0,.95.47,1.54,1.54,0,0,0,1.05-1A6.55,6.55,0,0,0,60.78,11.48Z"/><path d="M33.09,13.2A4.8,4.8,0,0,1,34,10.14a2.47,2.47,0,0,1,2.22-1A1.86,1.86,0,0,1,38,10.7a4.82,4.82,0,0,1-.8,3.88,2.62,2.62,0,0,1-1.7,1.06,1.94,1.94,0,0,1-2.34-1.7C33.12,13.66,33.11,13.37,33.09,13.2Zm1.08-.06a14.61,14.61,0,0,0,.3,1.51,0.75,0.75,0,0,0,1,.49,1.52,1.52,0,0,0,1-1,6.41,6.41,0,0,0,.45-3.21,2.81,2.81,0,0,0-.2-0.8,0.78,0.78,0,0,0-.84-0.52,1.37,1.37,0,0,0-1.16,1A7.15,7.15,0,0,0,34.18,13.14Z"/><path d="M85,14c0.3,0.18.28,0.36,0,.53a9.43,9.43,0,0,1-1.08.81A1.66,1.66,0,0,1,81.39,14a5.37,5.37,0,0,1,.64-3.3,3,3,0,0,1,2.34-1.54,1.1,1.1,0,0,1,1.29,1.4,1.63,1.63,0,0,1-1.15,1.37,15,15,0,0,1-1.8.4c-0.17,0-.27.09-0.26,0.26A9,9,0,0,0,82.6,14a0.87,0.87,0,0,0,1.33.62,4.2,4.2,0,0,0,.58-0.32C84.68,14.23,84.85,14.11,85,14Zm-2.52-2.06a2.79,2.79,0,0,0,1.66-.53,1.24,1.24,0,0,0,.43-1,0.55,0.55,0,0,0-.7-0.64,1.28,1.28,0,0,0-.63.31A2.78,2.78,0,0,0,82.51,11.93Z"/><path d="M74,13.31l0.32,0.26a5.69,5.69,0,0,1-2,1.93,0.78,0.78,0,0,1-1.17-.77c0-.75.13-1.49,0.22-2.24s0.2-1.58.29-2.36a3.22,3.22,0,0,0,0-.33H70.89c-0.15,0-.31,0-0.28-0.22s0-.39.3-0.37,0.38,0,.56,0,0.32-.1.33-0.33c0-.39.09-0.78,0.13-1.19h1L72.8,9.21H74.6c0,0.58,0,.59-0.46.59H73a0.25,0.25,0,0,0-.3.26c-0.15,1.29-.31,2.58-0.45,3.88a2.37,2.37,0,0,0,.09.6,2.14,2.14,0,0,0,.58-0.23C73.28,14,73.62,13.67,74,13.31Z"/><path d="M26.32,9.81H25.56c-0.15,0-.31,0-0.28-0.22s0-.39.3-0.37,0.38,0,.56,0a0.26,0.26,0,0,0,.32-0.29c0-.4.09-0.81,0.13-1.22h1L27.47,9.21c0.52,0,1,0,1.46,0,0.15,0,.39-0.11.38,0.21a0.32,0.32,0,0,1-.38.39c-0.42,0-.84,0-1.26,0a0.26,0.26,0,0,0-.31.26C27.2,11.38,27,12.69,26.89,14a1.64,1.64,0,0,0,0,.2c0,0.37.17,0.49,0.47,0.26,0.46-.35.88-0.74,1.34-1.14L29,13.57A5.58,5.58,0,0,1,27,15.52a0.78,0.78,0,0,1-1.15-.78A15.38,15.38,0,0,1,26,13.09c0.11-1,.24-1.95.36-2.92A3.49,3.49,0,0,0,26.32,9.81Z"/><path d="M18.07,13.65a0.9,0.9,0,0,1,.11.4A3.21,3.21,0,0,1,17,15.49a1.52,1.52,0,0,1-.3.13,0.59,0.59,0,0,1-.85-0.67c0.12-1.11.26-2.21,0.4-3.32,0.16-1.33.33-2.65,0.5-4a0.32,0.32,0,0,0-.37-0.43c-0.32,0-.63-0.07-1-0.13a0.91,0.91,0,0,1,.23-0.35c0.76-.17,1.53-0.32,2.36-0.48-0.31,2.86-.7,5.65-1,8.45l0.13,0Z"/><path d="M46.81,15.67a7.47,7.47,0,0,1-1.13-.32,0.54,0.54,0,0,1-.27-0.87,0.67,0.67,0,0,1,1-.09,1.62,1.62,0,0,1,.32.37,0.45,0.45,0,0,0,.54.23,0.94,0.94,0,0,0,.78-0.58,0.89,0.89,0,0,0-.17-1C47.45,13,47,12.54,46.52,12.11A1.56,1.56,0,0,1,46,11.05a1.77,1.77,0,0,1,1.67-1.9A4.65,4.65,0,0,1,49,9.24a0.58,0.58,0,0,1,.51.57,0.66,0.66,0,0,1-.49.64,0.63,0.63,0,0,1-.78-0.28l-0.07-.11c-0.31-.48-0.36-0.5-0.76-0.32a0.76,0.76,0,0,0-.43,1,1.93,1.93,0,0,0,.4.59,12.74,12.74,0,0,0,.94.89A1.8,1.8,0,0,1,49,14.31a2.2,2.2,0,0,1-2.12,1.28Z"/><path d="M63.72,10c-0.29.31-.56,0.61-0.84,0.88a0.83,0.83,0,0,1-.29.11,0.72,0.72,0,0,1,0-.32,2.82,2.82,0,0,1,1.1-1.29,1.72,1.72,0,0,1,.58-0.21,0.51,0.51,0,0,1,.65.6c0,0.5-.12,1-0.19,1.61L65,11c0.34-.46.66-0.94,1-1.38a1.24,1.24,0,0,1,1.27-.46,0.44,0.44,0,0,1,.36.6,0.8,0.8,0,0,1-1.27.58,0.3,0.3,0,0,0-.27,0c-0.47.5-.95,1-1.36,1.54a1.66,1.66,0,0,0-.17.76c-0.1.8-.2,1.6-0.28,2.4,0,0.27-.11.4-0.41,0.37a5.45,5.45,0,0,0-.64,0c0.2-1.82.39-3.59,0.58-5.36A0.34,0.34,0,0,0,63.72,10Z"/><path d="M30.63,10l-1,1c-0.2-.06-0.3-0.16-0.18-0.36a3.38,3.38,0,0,1,1.14-1.31,1.54,1.54,0,0,1,.52-0.19,0.53,0.53,0,0,1,.69.65c-0.2,1.51-.4,3-0.6,4.53a3.42,3.42,0,0,0,0,.44l0.1,0,0.66-.7a1.3,1.3,0,0,1,.21-0.21,0.27,0.27,0,0,1,.22,0,0.28,0.28,0,0,1,.08.24A2.86,2.86,0,0,1,31,15.59c-0.63.26-1,0-1-.67,0.08-.87.23-1.73,0.35-2.59,0.09-.67.2-1.33,0.28-2A1.51,1.51,0,0,0,30.63,10Z"/><path d="M32.2,7.5a0.73,0.73,0,0,1-.73.8,0.56,0.56,0,0,1-.56-0.66,0.75,0.75,0,0,1,.74-0.8A0.55,0.55,0,0,1,32.2,7.5Z"/><path d="M142.27,8.78l-2.67,6a3.32,3.32,0,0,0-.19.42,0.44,0.44,0,0,1-.54.35,0.27,0.27,0,0,1-.3-0.26c-0.33-1.84-.66-3.67-1-5.51-0.12-.65-0.24-1.3-0.34-2a0.48,0.48,0,0,0-.38-0.44,2.76,2.76,0,0,1-.55-0.22,0.3,0.3,0,0,1-.11-0.24,0.23,0.23,0,0,1,.16-0.16h2.8a0.32,0.32,0,0,1-.22.47c-0.63.3-.62,0.3-0.5,1,0.31,1.7.61,3.41,0.91,5.12,0,0.05,0,.1.07,0.23l0.16-.34c0.91-2.05,1.82-4.1,2.71-6.15a0.47,0.47,0,0,1,.52-0.33,0.29,0.29,0,0,1,.31.3c0.36,2.23.72,4.46,1.1,6.75l2.86-6.28c-0.24-.12-0.47-0.21-0.68-0.34a0.28,0.28,0,0,1-.12-0.23,0.26,0.26,0,0,1,.17-0.18h2.47c0.1,0.25,0,.39-0.18.43a1.75,1.75,0,0,0-1.26,1.2c-1.06,2.28-2.18,4.54-3.25,6.82a0.52,0.52,0,0,1-.66.31,0.35,0.35,0,0,1-.19-0.25c-0.32-1.85-.62-3.7-0.93-5.55Z"/><path d="M132.87,10.17l-1.48-.31a5.79,5.79,0,0,1,.25,1.27,2.18,2.18,0,0,1-2.18,2.07,0.91,0.91,0,0,0-.77.41c-0.22.28-.16,0.5,0.19,0.58,0.72,0.16,1.45.3,2.17,0.45l0.48,0.11a1,1,0,0,1,.78,1.42,2.38,2.38,0,0,1-1.11,1.4,4.76,4.76,0,0,1-4,.53,2.09,2.09,0,0,1-.75-0.46,0.75,0.75,0,0,1-.06-1.15c0.39-.41.83-0.75,1.26-1.12a3.64,3.64,0,0,1,.31-0.22,0.22,0.22,0,0,0,0-.08,0.74,0.74,0,0,1,0-1.33c0.22-.2.46-0.37,0.73-0.58l-0.18-.06a1.6,1.6,0,0,1-1.25-2,2.42,2.42,0,0,1,2.64-1.92c0.31,0,.62.16,0.93,0.23a1.27,1.27,0,0,0,.48,0c0.58-.11,1.16-0.24,1.8-0.38Zm-4.3,7.68a3.56,3.56,0,0,0,2.53-1c0.45-.51.31-1-0.34-1.11s-1.44-.32-2.17-0.46a0.42,0.42,0,0,0-.33.06,11.82,11.82,0,0,0-1,1.18,0.61,0.61,0,0,0,.24,1A6.73,6.73,0,0,0,128.56,17.85Zm2-6.88-0.07,0a4.85,4.85,0,0,0,0-.5,0.85,0.85,0,0,0-1.12-.8,1.4,1.4,0,0,0-.68.52,2.48,2.48,0,0,0-.35,1.62,1,1,0,0,0,1.85.46A9.88,9.88,0,0,0,130.56,11Z"/><path d="M95.27,11.86c0.45,0,.91,0,1.36,0a0.76,0.76,0,0,1,.28.15,0.79,0.79,0,0,1-.22.28c-0.26.11-.55,0.16-0.82,0.27a0.41,0.41,0,0,0-.21.27c-0.08.63-.13,1.27-0.21,1.91a0.45,0.45,0,0,1-.22.31,6.58,6.58,0,0,1-3.27.5,2.65,2.65,0,0,1-2.43-2.44,8.05,8.05,0,0,1,.41-3.62,4.08,4.08,0,0,1,3.76-2.82,8,8,0,0,1,2.4.22,0.32,0.32,0,0,1,.29.41c-0.06.48-.1,1-0.16,1.45,0,0.14,0,.29-0.24.29a0.28,0.28,0,0,1-.31-0.26c-0.09-.4-0.22-0.79-0.31-1.18A0.33,0.33,0,0,0,95,7.27a3.51,3.51,0,0,0-4.1,2.88,6.16,6.16,0,0,0-.12,3,1.93,1.93,0,0,0,2.06,1.76,8.74,8.74,0,0,0,1.26-.07,0.35,0.35,0,0,0,.25-0.22c0.07-.57.1-1.14,0.15-1.72a0.31,0.31,0,0,0-.25-0.39,2.19,2.19,0,0,1-.52-0.2A0.36,0.36,0,0,1,93.58,12a0.29,0.29,0,0,1,.23-0.16c0.49,0,1,0,1.46,0h0Z"/><path d="M113.54,14.3c0.09-.16.16-0.25,0.21-0.36L115.05,11a0.63,0.63,0,0,0,0-.66,1.24,1.24,0,0,1-.15-0.47,0.58,0.58,0,0,1,.3-0.68,0.8,0.8,0,0,1,.85,0,0.54,0.54,0,0,1,.2.41,2.4,2.4,0,0,1-.21.86c-0.81,1.61-1.65,3.2-2.48,4.79a0.94,0.94,0,0,1-.82.32L112,11.12H112l-1,2.6-0.59,1.48a0.82,0.82,0,0,1-.84.38,0.35,0.35,0,0,1-.12-0.24c-0.22-1.34-.44-2.68-0.66-4-0.07-.4-0.14-0.8-0.2-1.19l-0.09,0c-0.17.23-.34,0.47-0.53,0.69a0.84,0.84,0,0,1-.31.13,0.66,0.66,0,0,1,0-.31,12,12,0,0,1,.62-1.09,1,1,0,0,1,.38-0.31,0.62,0.62,0,0,1,1,.49c0.22,1.44.42,2.88,0.64,4.41,0.07-.16.12-0.26,0.16-0.36,0.56-1.41,1.12-2.81,1.66-4.22a0.4,0.4,0,0,1,.52-0.31,0.41,0.41,0,0,1,.26.25c0.23,1.4.45,2.81,0.67,4.22Z"/><path d="M166.82,14.75l1-1c0.24,0.07.32,0.19,0.18,0.37a8.07,8.07,0,0,1-.91,1.13,1.74,1.74,0,0,1-.89.35,0.46,0.46,0,0,1-.54-0.59l0.14-1.3c-0.43.44-.83,0.91-1.28,1.3a3,3,0,0,1-1,.55,0.94,0.94,0,0,1-1.23-.55,3.84,3.84,0,0,1-.2-2.21,4.1,4.1,0,0,1,1.86-3.13A3.23,3.23,0,0,1,166,9.19l0.16,0,0.1,0c0.07-.56.15-1.14,0.2-1.72a0.35,0.35,0,0,0-.24-0.21c-0.35-.07-0.7-0.1-1-0.14-0.09-.22,0-0.35.19-0.4l2.29-.44c-0.18,1.45-.36,2.85-0.52,4.25s-0.4,2.79-.5,4.19Zm-3.63-1.34c0,0.14,0,.29,0,0.43s0,0.27,0,.4c0.06,0.55.29,0.67,0.77,0.37l0.11-.07c0.53-.43,1.07-0.86,1.59-1.3a0.47,0.47,0,0,0,.15-0.27c0.12-.93.22-1.86,0.35-2.79a0.27,0.27,0,0,0-.26-0.36,1.85,1.85,0,0,0-2.3,1.17A6.37,6.37,0,0,0,163.19,13.41Z"/><path d="M120.62,15.47c0.16-1.84.5-3.62,0.62-5.42l-0.13,0c-0.27.29-.53,0.58-0.81,0.86A0.87,0.87,0,0,1,120,11a0.68,0.68,0,0,1,0-.34,10.68,10.68,0,0,1,.88-1.11,1.37,1.37,0,0,1,.6-0.33,0.58,0.58,0,0,1,.83.69c0,0.35-.09.7-0.13,1.07,0.4-.42.78-0.84,1.17-1.23a2,2,0,0,1,1.24-.57,0.73,0.73,0,0,1,.88.87c-0.14,1.22-.31,2.43-0.47,3.65,0,0.34-.08.68-0.11,1l0.1,0a1.8,1.8,0,0,0,.19-0.15c0.23-.24.45-0.49,0.69-0.72a0.26,0.26,0,0,1,.24,0,0.26,0.26,0,0,1,.08.24,2.74,2.74,0,0,1-1.52,1.5l-0.13,0a0.54,0.54,0,0,1-.72-0.65c0.08-.76.18-1.51,0.27-2.27s0.2-1.51.29-2.27a0.43,0.43,0,0,0-.09-0.34,0.48,0.48,0,0,0-.4,0,18.78,18.78,0,0,0-1.73,1.44,1.61,1.61,0,0,0-.19.85c-0.12.94-.23,1.88-0.34,2.83a0.23,0.23,0,0,1-.26.25h-0.78Z"/><path d="M107.07,11.55a4.75,4.75,0,0,1-.93,3.06,2.57,2.57,0,0,1-2,1.05,1.83,1.83,0,0,1-2-1.45,4.71,4.71,0,0,1,.85-4.14,2.4,2.4,0,0,1,2.21-1A1.94,1.94,0,0,1,107,10.81C107,11.1,107.06,11.4,107.07,11.55Zm-1.09.07a13.93,13.93,0,0,0-.28-1.45,0.75,0.75,0,0,0-.87-0.55,1.35,1.35,0,0,0-1.13,1,6.4,6.4,0,0,0-.44,3.34,2.79,2.79,0,0,0,.21.79,0.76,0.76,0,0,0,.9.44,1.54,1.54,0,0,0,1.08-1A7.23,7.23,0,0,0,106,11.62Z"/><path d="M152.95,11.68a4.71,4.71,0,0,1-1,2.95,2.62,2.62,0,0,1-1.6,1A1.89,1.89,0,0,1,148,14.08a4.74,4.74,0,0,1,.81-3.91,2.49,2.49,0,0,1,2.47-1,2,2,0,0,1,1.55,1.66C152.9,11.09,152.92,11.39,152.95,11.68Zm-1.1-.08a14,14,0,0,0-.29-1.45,0.75,0.75,0,0,0-.85-0.54,1.36,1.36,0,0,0-1.15,1,6.47,6.47,0,0,0-.45,3.25,2.93,2.93,0,0,0,.22.86,0.76,0.76,0,0,0,.93.45,1.53,1.53,0,0,0,1.06-1A7.21,7.21,0,0,0,151.85,11.6Z"/><path d="M160.26,14.76l1-1.12a1,1,0,0,1,.1.42,3.32,3.32,0,0,1-1.14,1.39,1.65,1.65,0,0,1-.33.16,0.61,0.61,0,0,1-.91-0.7c0.11-1,.23-1.91.35-2.86,0.18-1.48.37-3,.56-4.44a0.28,0.28,0,0,0-.31-0.37c-0.34,0-.67-0.08-1-0.12,0-.23,0-0.35.21-0.39l2.28-.45c-0.3,2.85-.71,5.65-1,8.46Z"/><path d="M98.14,10c-0.27.29-.53,0.58-0.81,0.86A0.86,0.86,0,0,1,97,11a0.8,0.8,0,0,1,0-.35,2.86,2.86,0,0,1,1.11-1.28,1.57,1.57,0,0,1,.49-0.18,0.54,0.54,0,0,1,.73.65c0,0.48-.12,1-0.2,1.54l0.22-.31c0.35-.47.67-1,1-1.41a1.23,1.23,0,0,1,1.27-.46,0.44,0.44,0,0,1,.36.6,0.8,0.8,0,0,1-1.27.58,0.3,0.3,0,0,0-.27,0c-0.47.5-.94,1-1.36,1.54a1.57,1.57,0,0,0-.17.73c-0.1.81-.2,1.62-0.28,2.43,0,0.26-.11.41-0.4,0.37a5.52,5.52,0,0,0-.66,0c0.18-1.84.47-3.62,0.65-5.41Z"/><path d="M154.21,15.47c0.18-1.83.48-3.6,0.64-5.39L154.71,10c-0.26.28-.51,0.56-0.78,0.82a1.06,1.06,0,0,1-.34.14,1,1,0,0,1,0-.38,2.78,2.78,0,0,1,1-1.21,1.75,1.75,0,0,1,.58-0.22,0.5,0.5,0,0,1,.67.57c0,0.52-.11,1-0.17,1.62,0.19-.29.34-0.54,0.51-0.77a12,12,0,0,1,.8-1,1.21,1.21,0,0,1,1.17-.4,0.46,0.46,0,0,1,.39.63c-0.18.7-.71,0.89-1.42,0.45-0.32.34-.63,0.72-1,1a2.3,2.3,0,0,0-.71,1.65c-0.05.76-.17,1.51-0.27,2.27a0.32,0.32,0,0,1-.21.22A7.78,7.78,0,0,1,154.21,15.47Z"/><path d="M118.35,14.78c0.26-.28.52-0.56,0.79-0.83a0.9,0.9,0,0,1,.32-0.12,0.69,0.69,0,0,1,0,.34,7.54,7.54,0,0,1-.77,1,1.8,1.8,0,0,1-.7.42,0.57,0.57,0,0,1-.86-0.65c0.09-.88.23-1.75,0.36-2.62,0.09-.67.2-1.33,0.28-2a1.87,1.87,0,0,0-.05-0.4l-1,1.09-0.15,0a0.69,0.69,0,0,1,0-.36,15,15,0,0,1,1.08-1.28,1.1,1.1,0,0,1,.57-0.23,0.54,0.54,0,0,1,.7.68c-0.2,1.52-.41,3-0.61,4.56a3,3,0,0,0,0,.39Z"/><path d="M119.28,7.5a0.72,0.72,0,0,1-.73.8A0.57,0.57,0,0,1,118,7.63a0.76,0.76,0,0,1,.74-0.8A0.54,0.54,0,0,1,119.28,7.5Z"/></svg>