<svg id="BRAND_LOGO_HEADER" data-name="BRAND LOGO HEADER" xmlns="http://www.w3.org/2000/svg" width="303" height="37" viewBox="0 0 303 37">
  <defs>
    <style>
      .cls-1 {
        fill: #bb650e;
        fill-rule: evenodd;
      }
    </style>
  </defs>
  <path class="cls-1" d="M20792,91.672c-0.4,6.627-3.4,10.325-8.7,10.325-5.9,0-9.3-4.594-9.3-15s3.4-15.007,9.3-15.007,8.4,4.186,8.4,8.948h-2.6c0-3.949-2-6.755-5.8-6.755-4.1,0-6.7,3.421-6.7,12.815s2.6,12.809,6.7,12.809c3.7,0,5.8-3.135,6.1-8.139h2.6Z" transform="translate(-20554 -65)"/>
  <path id="Shape_1_copy_2" data-name="Shape 1 copy 2" class="cls-1" d="M20760.6,73.006h3.2l8.6,29.007h-2.7l-2.4-8.445h-10.2l-2.3,8.445h-2.8Zm6.1,18.369-4.4-16.327h-0.1l-4.5,16.327h9Zm35.4-16.166h-7.5v-2.2h17.6v2.2h-7.5v26.8h-2.6V75.21Zm13.2-2.2h2.6v29.007h-2.6V73.006Zm5.5,0h2.8l6.5,26.247h0.1l6.4-26.247h2.8l-7.7,29.007h-3.2Zm21.4,0h14.4v2.2h-11.8V85.766h11v2.2h-11v11.86h12.2v2.189h-14.8V73.006Z" transform="translate(-20554 -65)"/>
  <path id="Shape_1_copy" data-name="Shape 1 copy" class="cls-1" d="M20746.6,65.683h-1.1V65h3.1v0.68h-1.1v3.008h-0.9V65.683Zm2.4-.68h1.1l0.9,2.541h0l0.9-2.541h1.1v3.688h-0.8v-2.61h0l-0.9,2.61h-0.6l-0.9-2.589h0v2.589h-0.8V65Zm-8.2,0h-3.9a2.465,2.465,0,0,0-1.4.328,1.416,1.416,0,0,0-.8.988,25.1,25.1,0,0,1-3.2,8.033,14,14,0,0,1-4.1,4.4l-6.7-12.431a2.567,2.567,0,0,0-.8-1.013,2.939,2.939,0,0,0-1.4-.3h-5.7a0.815,0.815,0,0,0-.8.383,1.067,1.067,0,0,0,.1.933l9.4,17.143a21.532,21.532,0,0,0,13.7-4.928,20.979,20.979,0,0,0,6.5-8.98c0.3-.958.7-2.369,0.8-2.9a2.042,2.042,0,0,0-.3-1.189,1.963,1.963,0,0,0-1.4-.463m-118.1,35.7s-6-12.928-6.6-14.048a18.79,18.79,0,0,1-7.1,1.4l5.3,12.648a2.1,2.1,0,0,0,.8.991,2.492,2.492,0,0,0,1.4.317h5.5a0.66,0.66,0,0,0,.7-0.381,0.785,0.785,0,0,0,0-.927m120.2,0-9.2-16.628a21.367,21.367,0,0,1-6.1,1.72,28.606,28.606,0,0,1-6.4.064l-9.1,14.791a1.048,1.048,0,0,0-.1.925,0.8,0.8,0,0,0,.8.436h5.9a2.507,2.507,0,0,0,1.4-.329,2.4,2.4,0,0,0,.9-0.979l6.9-12.6,6.4,12.6a2.24,2.24,0,0,0,.8.956,2.668,2.668,0,0,0,1.5.352h5.6a0.952,0.952,0,0,0,.8-0.354A1.116,1.116,0,0,0,20742.9,100.7Zm-153.3-16.4a43.11,43.11,0,0,0-6.6-.262l-5.9-17.714a2.151,2.151,0,0,0-.7-0.924,2.348,2.348,0,0,0-1.2-.393h-6.6a1.763,1.763,0,0,0-1.1.4,2.2,2.2,0,0,0-.8.915l-8.5,22.64a32.283,32.283,0,0,1,5.5-3.44,29.174,29.174,0,0,1,4.1-1.6l3.7-11.844h0.1l3.9,12.808a35.95,35.95,0,0,0-8.6,2.783c-6.3,3.078-11.5,8.391-12.8,13.031a1.415,1.415,0,0,0,0,.912,0.926,0.926,0,0,0,.8.4h5.2a2.375,2.375,0,0,0,1.3-.305,2.052,2.052,0,0,0,.8-0.985c0.7-1.517,4.3-8.689,14.3-12.149,0-.011,0-0.022.1-0.032l3.7,12.161a1.612,1.612,0,0,0,.6.938,2.181,2.181,0,0,0,1.4.373h5.4a0.793,0.793,0,0,0,.8-0.44,1.291,1.291,0,0,0,0-.871l-4.8-14.33a31.978,31.978,0,0,1,6-.815,0.546,0.546,0,0,0,.4-0.6A0.561,0.561,0,0,0,20589.6,84.3Zm25.1-18.351A24.8,24.8,0,0,0,20607,65h-9.7a2.6,2.6,0,0,0-1.6.551,2.39,2.39,0,0,0-.6,1.827V100.7a1.106,1.106,0,0,0,.4.926,1.29,1.29,0,0,0,.9.385h5a1.128,1.128,0,0,0,.9-0.385,1.106,1.106,0,0,0,.4-0.926V70.944h3.4a14.884,14.884,0,0,1,3.1.256c2.6,0.579,4.9,2.29,4.9,5.8a6.652,6.652,0,0,1-3.1,5.511,11.78,11.78,0,0,1-5.2,1.8,0.632,0.632,0,0,0,0,1.236c4.8-.129,8.9-1.038,11.4-2.883a8.617,8.617,0,0,0,3.7-7.634A9.327,9.327,0,0,0,20614.7,65.944Zm65.7,31.174a1.352,1.352,0,0,0-1.4-1.313h-12V66.315a1.11,1.11,0,0,0-.4-0.929,1.125,1.125,0,0,0-.9-0.384h-5a1.285,1.285,0,0,0-.9.384,1.11,1.11,0,0,0-.4.929V99.631a2.383,2.383,0,0,0,.6,1.824,2.667,2.667,0,0,0,1.7.552h17.3a1.353,1.353,0,0,0,1.4-1.311V97.119ZM20687.5,65a2.033,2.033,0,0,0-2.2,2.377v32.25a2.034,2.034,0,0,0,2.2,2.378h18.6a1.527,1.527,0,0,0,1-.391,1.434,1.434,0,0,0,.3-0.92V97.119a1.439,1.439,0,0,0-.3-0.922,1.528,1.528,0,0,0-1-.391h-13.3V86.315h11.2a1.285,1.285,0,0,0,.9-0.39,1.524,1.524,0,0,0,.4-0.923V81.7a1.526,1.526,0,0,0-.4-0.923,1.28,1.28,0,0,0-.9-0.389h-11.2V71.2h13.2a1.279,1.279,0,0,0,.9-0.39,1.115,1.115,0,0,0,.4-0.923V66.315a1.114,1.114,0,0,0-.4-0.922,1.279,1.279,0,0,0-.9-0.39h-18.5m-44.3,22.966,11-21.65a1.1,1.1,0,0,0,.1-0.946,0.824,0.824,0,0,0-.8-0.37h-5.3a2.953,2.953,0,0,0-1.5.336,1.8,1.8,0,0,0-.7.98l-6.6,14.78h-0.1l-6.5-14.78a1.9,1.9,0,0,0-.8-0.98,2.716,2.716,0,0,0-1.5-.336h-5.5a0.76,0.76,0,0,0-.7.37,1.1,1.1,0,0,0,.1.946l11.2,21.65V100.7a1.106,1.106,0,0,0,.4.926,1.29,1.29,0,0,0,.9.385h5a1.128,1.128,0,0,0,.9-0.385,1.106,1.106,0,0,0,.4-0.926V87.969Z" transform="translate(-20554 -65)"/>
</svg>
