<svg id="9cfcdd4f-6811-472f-996f-75b1e8d1bf5d" data-name="Layer 1" xmlns="http://www.w3.org/2000/svg" viewBox="0 0 173 25"><defs><style>.\31 4e9fb93-2d22-4dd8-84cc-892dc339a5a2{fill:#1f191a;}.b4c39787-0737-4854-b3a3-23ef32599145{fill:#eb0029;}.\36 d3efc25-601b-4c00-a8bd-e8dc8a154bbb{fill:#fff;}</style></defs><title>logo-dow</title><path class="14e9fb93-2d22-4dd8-84cc-892dc339a5a2" d="M84.25,15.77V8.63h2.62a4.22,4.22,0,0,1,1.9.33,3.42,3.42,0,0,1,1.64,3.22A3.87,3.87,0,0,1,89.36,15c-0.75.75-1.62,0.75-2.94,0.75H84.25Zm1.58-1.48h0.72a2.31,2.31,0,0,0,1.66-.37,2.45,2.45,0,0,0,.57-1.7,2.25,2.25,0,0,0-.64-1.72,2.5,2.5,0,0,0-1.7-.37H85.83v4.16Z"/><path class="14e9fb93-2d22-4dd8-84cc-892dc339a5a2" d="M93.84,10.65a2.46,2.46,0,0,1,2.66,2.64,2.65,2.65,0,0,1-5.3,0,2.45,2.45,0,0,1,2.65-2.64m0,4.08a1.2,1.2,0,0,0,1.1-1.46c0-.93-0.39-1.47-1.1-1.47s-1.09.55-1.09,1.47,0.39,1.46,1.09,1.46"/><path class="14e9fb93-2d22-4dd8-84cc-892dc339a5a2" d="M101.08,13.84c-0.1-.51-0.23-1.17-0.33-1.7h0c-0.11.51-.22,1.18-0.35,1.72L100,15.77H98.05l-1.26-5h1.57l0.4,2.16c0.1,0.51.18,1,.29,1.53h0c0.12-.49.21-1,0.36-1.57l0.53-2.13h1.64l0.54,2.15c0.17,0.66.23,1,.34,1.54h0c0.1-.51.17-0.85,0.3-1.57l0.41-2.12h1.51l-1.32,5h-1.89Z"/><path class="14e9fb93-2d22-4dd8-84cc-892dc339a5a2" d="M108.92,15.77h-1.67l2.41-7.14h1.92L114,15.77h-1.7l-0.42-1.42h-2.51ZM110.84,11c-0.12-.45-0.24-0.92-0.24-0.92h0s-0.13.47-.26,0.93l-0.61,2h1.71Z"/><path class="14e9fb93-2d22-4dd8-84cc-892dc339a5a2" d="M115.93,15.86a0.92,0.92,0,0,0,1.09.79,1,1,0,0,0,1.13-1.12V15.17a2,2,0,0,1-1.48.54,2.29,2.29,0,0,1-2.29-2.54,2.37,2.37,0,0,1,2.31-2.52,2,2,0,0,1,1.47.56V10.78h1.53v4.48c0,1.79-.71,2.53-2.7,2.53-1.79,0-2.4-.81-2.49-1.83Zm1.11-4a1.19,1.19,0,0,0-1.12,1.38A1.17,1.17,0,0,0,117,14.58a1.23,1.23,0,0,0,1.14-1.39A1.22,1.22,0,0,0,117,11.81"/><path class="14e9fb93-2d22-4dd8-84cc-892dc339a5a2" d="M122.52,10.78v0.68a1.53,1.53,0,0,1,1.41-.8h0.18v1.47a2.08,2.08,0,0,0-.49-0.06,0.91,0.91,0,0,0-1,.7,2.47,2.47,0,0,0-.07.67v2.32H121v-5h1.51Z"/><path class="14e9fb93-2d22-4dd8-84cc-892dc339a5a2" d="M127.21,10.65a2.46,2.46,0,0,1,2.66,2.64,2.65,2.65,0,0,1-5.3,0,2.45,2.45,0,0,1,2.64-2.64m0,4.08a1.2,1.2,0,0,0,1.11-1.46c0-.93-0.39-1.47-1.11-1.47s-1.09.55-1.09,1.47,0.38,1.46,1.09,1.46"/><path class="14e9fb93-2d22-4dd8-84cc-892dc339a5a2" d="M135,10.6a2.66,2.66,0,0,0-1.85-.78,0.93,0.93,0,0,0-1.12.73c0,0.46.32,0.65,1,.77l1.15,0.23c1.33,0.26,2.15.79,2.15,2,0,1.48-1.32,2.3-3,2.3a4.06,4.06,0,0,1-3.22-1.49l1.1-.94a2.68,2.68,0,0,0,2.16,1.11c0.83,0,1.32-.32,1.32-0.85s-0.42-.63-1.07-0.74l-0.92-.18c-1.31-.25-2.29-0.72-2.29-2.12s1.18-2.17,2.75-2.17a3.89,3.89,0,0,1,2.87,1.12Z"/><path class="14e9fb93-2d22-4dd8-84cc-892dc339a5a2" d="M142,14.53a2.26,2.26,0,0,1-2.3,1.37,2.42,2.42,0,0,1-2.65-2.6,2.45,2.45,0,0,1,2.65-2.64,2.25,2.25,0,0,1,2.35,1.55l-1.32.45a1,1,0,0,0-1-.85c-0.71,0-1.09.55-1.09,1.47s0.39,1.46,1.09,1.46a1,1,0,0,0,1-.73Z"/><path class="14e9fb93-2d22-4dd8-84cc-892dc339a5a2" d="M144.42,10.13h-1.54V8.63h1.54v1.5Zm0,5.64h-1.54v-5h1.54v5Z"/><path class="14e9fb93-2d22-4dd8-84cc-892dc339a5a2" d="M150.35,14.71A2.82,2.82,0,0,1,148,15.9a2.47,2.47,0,0,1-2.59-2.65,2.46,2.46,0,0,1,2.56-2.6,2.43,2.43,0,0,1,2.49,2.71,2.76,2.76,0,0,1,0,.31h-3.56a1.11,1.11,0,0,0,1.21,1,1.41,1.41,0,0,0,1.24-.69Zm-3.51-2h2.09a1,1,0,0,0-1-1,1,1,0,0,0-1.07,1"/><path class="14e9fb93-2d22-4dd8-84cc-892dc339a5a2" d="M156.16,15.77h-1.53V13.25c0-.77,0-1.3-0.79-1.3a1,1,0,0,0-.91,1.18v2.64h-1.53v-5h1.51V11.4a1.71,1.71,0,0,1,1.5-.75,1.69,1.69,0,0,1,1.31.48,2.32,2.32,0,0,1,.44,1.81v2.84Z"/><path class="14e9fb93-2d22-4dd8-84cc-892dc339a5a2" d="M162.05,14.53a2.26,2.26,0,0,1-2.3,1.37,2.42,2.42,0,0,1-2.65-2.6,2.45,2.45,0,0,1,2.65-2.64,2.26,2.26,0,0,1,2.35,1.55l-1.32.45a1,1,0,0,0-1-.85c-0.71,0-1.1.55-1.1,1.47s0.39,1.46,1.1,1.46a1,1,0,0,0,1-.73Z"/><path class="14e9fb93-2d22-4dd8-84cc-892dc339a5a2" d="M167.58,14.71a2.83,2.83,0,0,1-2.39,1.18,2.47,2.47,0,0,1-2.59-2.65,2.46,2.46,0,0,1,2.56-2.6,2.43,2.43,0,0,1,2.49,2.71c0,0.1,0,.22,0,0.31h-3.56a1.12,1.12,0,0,0,1.21,1,1.41,1.41,0,0,0,1.24-.69Zm-3.51-2h2.09a1,1,0,0,0-1-1,1.05,1.05,0,0,0-1.07,1"/><path class="14e9fb93-2d22-4dd8-84cc-892dc339a5a2" d="M171.93,12.3a2,2,0,0,0-1.35-.55,0.54,0.54,0,0,0-.65.37c0,0.26.23,0.34,0.75,0.44l0.78,0.17c0.81,0.17,1.54.49,1.54,1.45,0,1.17-1,1.72-2.2,1.72a3.22,3.22,0,0,1-2.56-1.12l1-.77a2,2,0,0,0,1.59.76c0.51,0,.77-0.17.77-0.44s-0.3-.34-0.64-0.4l-0.78-.16a2.64,2.64,0,0,1-1.24-.52,1.23,1.23,0,0,1-.43-1c0-1.18,1.14-1.62,2.13-1.62a3.1,3.1,0,0,1,2.18.83Z"/><path class="b4c39787-0737-4854-b3a3-23ef32599145" d="M59.53,22.27a1.81,1.81,0,1,1-1.8-1.8,1.8,1.8,0,0,1,1.8,1.8m-3.34,0a1.54,1.54,0,1,0,1.54-1.54,1.53,1.53,0,0,0-1.54,1.54m1.2,1H57.05V21.24h0.83a0.52,0.52,0,0,1,.58.52,0.5,0.5,0,0,1-.45.48h0c0.26,0,.35.11,0.37,0.53a2.44,2.44,0,0,0,.08.54H58.12A2.22,2.22,0,0,1,58,22.63a0.27,0.27,0,0,0-.31-0.24H57.39v0.93Zm0-1.19h0.44a0.3,0.3,0,0,0,.3-0.34,0.29,0.29,0,0,0-.3-0.31H57.39v0.66Z"/><polygon class="b4c39787-0737-4854-b3a3-23ef32599145" points="0 12.27 37.42 0 74.89 12.21 37.41 24.65 0 12.27"/><path class="6d3efc25-601b-4c00-a8bd-e8dc8a154bbb" d="M42.79,9.22h4.59V9.84H47.15a0.63,0.63,0,0,0-.51.36,0.75,0.75,0,0,0,0,.59L48,14.09l1.89-4.87h2.5l1.95,4.84,1.44-3.46a0.58,0.58,0,0,0-.09-0.49,0.56,0.56,0,0,0-.47-0.28H55V9.22h4.55V9.84H59.18a1,1,0,0,0-.67.26,1.26,1.26,0,0,0-.42.55L55.87,16a0.69,0.69,0,0,0,0,.56,0.48,0.48,0,0,0,.42.2h0.33v0.58H52.14V16.79h0.3a0.39,0.39,0,0,0,.32-0.25,0.45,0.45,0,0,0,0-.43l-1.63-3.87-1.61,3.82a0.64,0.64,0,0,0,0,.51,0.42,0.42,0,0,0,.34.22H50v0.58H45.57V16.79h0.24a0.47,0.47,0,0,0,.4-0.21,0.61,0.61,0,0,0,0-.55l-2.25-5.5A1.1,1.1,0,0,0,43.58,10a0.87,0.87,0,0,0-.52-0.21H42.79V9.22"/><path class="6d3efc25-601b-4c00-a8bd-e8dc8a154bbb" d="M37.46,8.48c-3.09,0-5.42,1.83-5.42,4.59s2.41,4.49,5.38,4.47,5.41-1.63,5.45-4.47-2.37-4.59-5.41-4.59m0,6.76c-1.57,0-2.85-.8-2.85-2.19s1.23-2.26,2.88-2.26,2.89,0.91,2.87,2.26-1.31,2.19-2.9,2.19"/><path class="6d3efc25-601b-4c00-a8bd-e8dc8a154bbb" d="M25.44,7.27H18.53V7.85h0.31a1,1,0,0,1,.53.24,0.66,0.66,0,0,1,.2.45V16a0.6,0.6,0,0,1-.18.49,0.7,0.7,0,0,1-.55.26H18.51v0.59h6.95a5.12,5.12,0,0,0,5-5.08,5.24,5.24,0,0,0-5-5m-0.09,7.91H22V9.41h3.32c1.58,0,2.48.83,2.62,2.86a2.64,2.64,0,0,1-2.62,2.9"/></svg>