<svg xmlns="http://www.w3.org/2000/svg" width="24" height="18" viewBox="0 0 24 18">
  <defs>
    <style>
      .cls-1 {
        fill: #ada29a;
        fill-rule: evenodd;
      }
    </style>
  </defs>
  <path id="tw_logo" data-name="tw logo" class="cls-1" d="M22,2.885a6.871,6.871,0,0,1-2.122.636,4,4,0,0,0,1.625-2.233,7.041,7.041,0,0,1-2.346.979,3.559,3.559,0,0,0-2.7-1.275,3.877,3.877,0,0,0-3.7,4.038,4.389,4.389,0,0,0,.095.92A10.229,10.229,0,0,1,5.246,1.731a4.311,4.311,0,0,0-.5,2.03A4.149,4.149,0,0,0,6.389,7.122a3.448,3.448,0,0,1-1.674-.5V6.668a3.968,3.968,0,0,0,2.963,3.959,3.409,3.409,0,0,1-1.668.069,3.756,3.756,0,0,0,3.452,2.8,7.032,7.032,0,0,1-4.589,1.729,6.821,6.821,0,0,1-.883-0.057,9.83,9.83,0,0,0,5.666,1.814c6.8,0,10.513-6.152,10.513-11.487q0-.263-0.009-0.523A7.955,7.955,0,0,0,22,2.885Z"/>
</svg>
